<?xml version="1.0" encoding="UTF-8" standalone="no"?>
<svg
   xmlns:dc="http://purl.org/dc/elements/1.1/"
   xmlns:cc="http://creativecommons.org/ns#"
   xmlns:rdf="http://www.w3.org/1999/02/22-rdf-syntax-ns#"
   xmlns:svg="http://www.w3.org/2000/svg"
   xmlns="http://www.w3.org/2000/svg"
   viewBox="0 0 1417.3228 595.27557"
   id="svg2"
   height="595.27557"
   width="1417.3228"
   version="1.1">
  <metadata
     id="metadata18">
    <rdf:RDF>
      <cc:Work
         rdf:about="">
        <dc:format>image/svg+xml</dc:format>
        <dc:type
           rdf:resource="http://purl.org/dc/dcmitype/StillImage" />
      </cc:Work>
    </rdf:RDF>
  </metadata>
  <defs
     id="defs16" />
  <path
     id="path4"
     style="fill:#1b1918;fill-rule:evenodd"
     d="m 530.9532,112.838 1.6856,0.436 1.7015,0.8566 1.4886,1.2675 1.1184,1.5219 0.704,1.5853 0.3691,1.4926 0.1478,1.4793 -0.0357,0.8513 0.6656,1.2691 0.4174,1.4167 0.0677,0.4619 0.1075,0.022 1.0785,0.3444 1.083,0.4851 1.0658,0.6557 0.1008,0.0829 1.1866,-0.6052 1.2451,-0.4666 1.2721,-0.3218 1.2782,-0.1832 1.2398,-0.0551 1.1174,0.0418 1.0997,0.1315 -0.9019,-0.5024 -1.3405,-1.02 -1.1634,-1.1435 -1.0028,-1.2403 -0.811,-1.2364 -0.6283,-1.0957 -0.5628,-1.1547 -0.4799,-1.19 -0.3961,-1.2231 -0.3093,-1.2529 -0.2184,-1.2675 -0.1294,-1.2761 -0.0424,-1.2598 0.0304,-1.2263 0.089,-1.1852 0.1526,-1.1767 0.2165,-1.1661 0.2858,-1.1506 0.3505,-1.1277 0.4201,-1.1043 0.4865,-1.0771 0.5594,-1.0524 0.6238,-1.0115 0.6829,-0.9648 0.7433,-0.9239 0.801,-0.8773 0.8481,-0.8255 0.894,-0.7752 0.9363,-0.7267 0.8808,-0.6112 0.8832,-0.5561 0.9098,-0.5176 0.9279,-0.4746 0.9517,-0.4366 0.9727,-0.3949 0.9882,-0.3543 0.9995,-0.3113 1.0199,-0.276 1.0367,-0.2344 1.0466,-0.1971 1.0559,-0.1566 1.0677,-0.1233 1.0811,-0.085 1.0923,-0.0524 1.0984,-0.0152 1.0745,0.0144 1.0577,0.0431 1.0552,0.0744 1.0393,0.107 1.0254,0.1366 1.0153,0.1705 1.0082,0.2038 0.9868,0.2389 0.9735,0.2708 0.9642,0.3098 0.9463,0.3439 0.9253,0.3795 0.913,0.4174 0.8953,0.4567 0.8714,0.491 0.8555,0.5329 0.9589,0.659 0.9391,0.7287 0.8971,0.7851 0.8408,0.8382 0.7858,0.8859 0.7313,0.9445 0.6643,0.99 0.5921,1.026 0.5268,1.0699 0.4514,1.1048 0.3788,1.129 0.3021,1.1507 0.2317,1.1594 0.1611,1.1772 0.0956,1.1893 0.008,0.3153 0.6835,-0.0472 0.8595,-0.0178 0.8813,0.0152 0.8694,0.0511 0.8632,0.0863 0.8542,0.1247 0.8502,0.1619 0.8467,0.2072 0.4003,0.1194 -0.007,-0.138 0.1686,-1.543 0.4725,-1.5224 0.6424,-1.2849 0.7272,-1.0744 0.774,-0.9178 0.8057,-0.8084 0.8414,-0.7365 0.872,-0.6823 0.868,-0.6217 0.8601,-0.5636 0.8861,-0.5196 0.9223,-0.4698 0.9863,-0.4169 1.0817,-0.351 c 3.3136,-0.6947 6.6218,-0.2323 8.6757,2.7727 1.7003,-1.2178 3.3687,-2.1242 5.3623,-2.7719 3.4674,-0.7274 5.4007,-0.1095 8.1958,2.0665 l 0.0485,0.0704 0.4487,-0.3956 0.9994,-0.6914 1.0731,-0.5662 1.1262,-0.4339 1.1434,-0.2941 1.1269,-0.164 1.1123,-0.0509 1.1103,0.0522 1.132,0.1699 1.1496,0.304 1.1194,0.4447 1.0713,0.578 0.9927,0.7069 0.8813,0.7982 0.7367,0.8356 0.6192,0.8448 0.5309,0.8813 0.4525,0.9245 0.3644,0.9576 0.2828,0.9822 0.1904,0.9868 0.1122,0.9789 0.0344,1.0014 -0.0251,0.5919 c 6.5354,-3.1078 17.0768,-2.7096 22.3407,2.6062 l 0.2655,0.3478 0.3809,-0.2722 1.4382,-0.799 1.4924,-0.6398 1.5318,-0.5016 1.0459,-0.2543 0.2781,-1.0145 0.4453,-1.1045 0.5681,-1.0418 0.6696,-0.9529 0.7538,-0.8576 0.8057,-0.7466 0.8302,-0.6403 0.8674,-0.5582 0.9211,-0.4832 0.961,-0.3988 1.0007,-0.3126 1.0206,-0.219 1.0201,-0.1267 1.0214,-0.0411 1.0041,0.0437 1.0159,0.1369 1.0108,0.2309 0.9703,0.3204 0.929,0.399 0.8834,0.4744 0.8268,0.5362 0.7778,0.5966 0.7726,0.6909 0.7471,0.8123 0.6837,0.9152 0.5865,1.0087 0.476,1.085 0.3423,1.1456 0.2045,1.1666 0.0623,1.1413 -0.0463,0.9783 -0.1515,0.9929 -0.2768,1.0212 -0.4027,0.9868 -0.5149,0.9319 -0.6259,0.8627 -0.3816,0.4142 0.1957,0.418 0.4248,1.2158 0.2973,1.34 0.1062,1.3776 -0.0956,1.766 -0.2993,1.6962 -0.5322,1.679 -0.6808,1.4096 0.6502,0.4738 1.0712,0.9982 0.9583,1.1533 0.793,1.2769 0.6179,1.3671 0.4248,1.4269 0.2375,1.4209 0.0763,1.4633 -0.1335,1.9252 -0.4293,1.9584 -0.7266,1.8767 -0.9967,1.7347 -1.2193,1.5483 -1.3917,1.352 -1.5203,1.1607 -1.5616,0.9554 -0.7679,0.4017 -0.256,0.1233 0.3106,0.6504 0.3497,0.8283 0.3125,0.8422 0.2676,0.8606 0.2235,0.8861 0.1699,0.9237 0.1076,0.9391 0.0432,1.0982 -0.1209,1.5099 -0.5104,1.7878 -0.1758,0.3119 0.5197,1.0227 0.5228,1.5363 0.304,1.5669 0.0916,1.5084 -0.0605,1.4142 -0.1891,1.3645 -0.3311,1.3611 -0.4824,1.3306 -0.6266,1.2702 -0.7717,1.2013 -0.8933,1.0962 -0.9836,0.9736 -1.0465,0.8496 -1.1149,0.7405 -1.182,0.6298 -1.2375,0.5117 -1.2689,0.3883 -1.2849,0.268 -1.2947,0.1566 -1.2755,0.0492 -0.8867,-0.0273 -0.8509,-0.0776 -0.558,-0.0857 -0.5084,0.2476 -1.1302,0.4022 -1.2337,0.2621 -1.4167,0.1068 -1.6804,-0.1832 -1.6186,-0.521 -1.3706,-0.7346 -1.1394,-0.8514 -0.4526,-0.438 -0.2794,0.1521 -1.0001,0.4658 -1.0041,0.3982 -1.0161,0.337 -1.0452,0.2815 -1.0579,0.2163 -1.0617,0.1547 -1.0757,0.093 -1.0673,0.0298 -0.9157,-0.0221 -0.892,-0.0642 -0.88,-0.1076 -0.8906,-0.1545 -0.8852,-0.2058 -0.8629,-0.2515 -0.8499,-0.2999 -0.8422,-0.3518 -0.823,-0.4049 -0.7903,-0.448 -0.7593,-0.4898 -0.734,-0.5354 -0.7014,-0.5781 -0.2881,-0.2654 -0.1798,0.2043 -1.344,1.2013 -1.5097,1.0326 -1.6465,0.8235 -1.7459,0.5894 -1.796,0.3444 -0.1877,0.0112 -0.0107,0.0181 -0.7293,1.0379 -0.7665,0.9203 -0.8163,0.8643 -0.874,0.8393 -0.9444,0.8409 -0.9589,0.799 -0.9383,0.73 -0.9378,0.667 -0.9669,0.6144 -1.0353,0.5602 -1.174,0.5052 -1.3996,0.4014 -1.5774,0.1771 -1.2636,-0.0961 -1.0858,-0.2304 -0.9954,-0.3617 -0.8965,-0.4486 -0.7838,-0.5169 -0.6656,-0.5335 -0.5761,-0.5516 -0.5031,-0.5548 -0.434,-0.5495 -0.4002,-0.5681 -0.3842,-0.639 -0.3651,-0.7234 -0.3026,-0.7777 -0.2482,-0.8462 -0.1606,-0.9264 -0.0735,-1.125 0.0868,-0.8142 -0.1062,0.0412 -0.85,0.2754 -0.8555,0.2249 -0.8654,0.1819 -0.8674,0.1353 -0.8726,0.0969 -0.8787,0.0544 -0.8834,0.0194 -0.8779,-0.0194 -0.8707,-0.0531 -0.8654,-0.0942 -0.8661,-0.1321 -0.8614,-0.1777 -0.8462,-0.2178 -0.8361,-0.264 -0.8349,-0.3127 -0.8148,-0.363 -0.7865,-0.4028 -0.7679,-0.4527 -0.2634,-0.1764 -0.1407,0.1034 -1.15,0.6935 -1.0082,0.5138 -0.9849,0.4352 -1.01,0.3764 -1.0353,0.3151 -1.0579,0.2503 -1.0723,0.1806 -1.0838,0.1095 -1.0598,0.0357 -0.9264,-0.0219 -0.88,-0.0596 -0.88,-0.1023 -0.8853,-0.1481 -0.8768,-0.195 -0.8606,-0.241 -0.8395,-0.2847 -0.8382,-0.3351 -0.3955,-0.1864 -0.456,0.9596 -0.5362,0.9769 -0.592,0.9437 -0.6443,0.9064 -0.6936,0.8675 -0.7445,0.8315 -0.787,0.7858 -0.8004,0.7207 -0.7905,0.655 -0.8374,0.6278 -0.8661,0.5873 -0.8973,0.547 -0.9219,0.5002 -0.9429,0.4547 -0.9609,0.408 -0.9869,0.3657 -1.0027,0.318 -1.0135,0.272 -1.0279,0.2282 -1.0453,0.1854 -1.0492,0.1406 -1.0611,0.1009 -1.0726,0.0589 -1.0782,0.0208 -1.0433,-0.0181 -1.0206,-0.0498 -1.0129,-0.0836 -1.0119,-0.1194 -1.0014,-0.1566 -0.9855,-0.1925 -0.9671,-0.2275 -0.9663,-0.2656 -0.9535,-0.3079 -0.9317,-0.3425 -0.9152,-0.3814 -0.9032,-0.4216 -0.8808,-0.4605 -0.8547,-0.4938 -0.8342,-0.5322 -0.8036,-0.5614 -0.8629,-0.6577 -0.8587,-0.7266 -0.8142,-0.7745 -0.7732,-0.823 -0.7234,-0.8752 -0.6635,-0.9099 -0.6054,-0.953 -0.5487,-0.9955 -0.4778,-1.026 -0.4123,-1.0452 -0.3449,-1.0725 -0.2821,-1.0937 -0.2136,-1.1122 -0.1502,-1.1136 -0.0874,-1.1195 -0.0301,-1.1144 0.0181,-0.8733 0.053,-0.8409 0.0869,-0.8307 0.1241,-0.8329 0.1654,-0.8329 0.2037,-0.8216 0.2442,-0.8089 0.2853,-0.8031 0.3311,-0.7924 0.3678,-0.7652 0.4067,-0.7452 0.448,-0.7266 0.4891,-0.7069 0.5217,-0.6728 0.5508,-0.6411 0.5826,-0.6139 0.6173,-0.5873 0.6451,-0.5542 0.6787,-0.5256 0.0293,-0.0199 -0.3285,-0.5647 -0.4367,-0.888 -0.3684,-0.9186 -0.2999,-0.937 -0.2302,-0.9496 -0.1646,-0.9577 -0.0969,-0.961 -0.0365,-0.9602 0.007,-0.2555 -0.5668,-0.0843 -1.3174,-0.3431 -1.2907,-0.4984 -0.9868,-0.5217 -1.056,0.685 -1.4977,0.6869 -1.6532,0.4472 -1.5808,0.1433 -0.8388,-0.0338 -0.6762,-0.0796 -0.6538,-0.1335 -0.6696,-0.1883 -0.6603,-0.2536 -0.0405,-0.0186 -0.2176,0.0346 -1.1927,0.0967 -1.2324,0.0306 -0.3159,-0.01 -0.2376,-0.009 -0.2634,-0.0128 -0.3172,-0.0144 -0.3895,-0.0213 -0.436,-0.0226 -0.5031,-0.0272 -0.8427,-0.0445 -0.6877,-0.0956 -0.8076,-0.1864 -0.775,-0.2853 -0.468,-0.2203 -0.1076,0.0695 -1.0444,0.5482 -1.3764,0.4932 -1.5856,0.2309 -1.1626,-0.0644 -0.8329,-0.1361 -0.7591,-0.2064 -0.7127,-0.2627 -0.628,-0.3001 -0.5692,-0.3204 -0.5237,-0.3511 -0.5124,-0.3875 -0.5263,-0.4666 -0.509,-0.525 -0.4964,-0.6131 -0.491,-0.744 -0.4242,-0.856 -0.3271,-0.9192 -0.2176,-1.0227 -0.0764,-1.0811 0.0737,-0.9988 0.1505,-0.8188 0.1913,-0.6975 0.2117,-0.606 0.1161,-0.2834 -0.3305,-0.0868 -1.237,-0.4759 -1.1681,-0.6179 -1.0817,-0.7346 -0.9801,-0.8428 -0.8329,-0.8781 -0.7202,-0.8979 -0.6602,-0.994 -0.5588,-1.0526 -0.4619,-1.099 -0.3529,-1.1434 -0.245,-1.1514 -0.1401,-1.1522 -0.0477,-1.1674 0.0636,-1.4334 0.2046,-1.4493 0.3662,-1.4508 0.5402,-1.4201 0.7207,-1.3626 0.8926,-1.2662 1.044,-1.1408 1.1035,-0.9397 1.0752,-0.7538 1.1581,-0.6525 1.2116,-0.5375 1.2338,-0.416 1.2504,-0.31 1.2601,-0.2083 1.2657,-0.1202 1.2329,-0.0359 0.5297,0.0101 0.4845,0.0251 0.4771,0.0365 0.481,0.0479 0.4912,0.057 0.5084,0.0671 0.5348,0.0775 0.5117,0.0818 0.4315,0.0676 0.3715,0.0538 0.2104,0.0278 0.3039,-0.2821 0.5948,-0.4717 0.6555,-0.4328 0.7348,-0.3948 0.8169,-0.3351 0.8699,-0.253 0.9133,-0.1571 0.9788,-0.0559 1.5052,0.1097 z m -6.2733,12.4677 0,12.6317 c 1.1932,0.0232 1.7871,0.5389 1.7871,1.5496 0,0.6518 -0.8368,1.7905 -2.5113,3.417 -1.6716,1.6314 -2.8337,2.4437 -3.4854,2.4437 -0.383,0 -0.7812,-0.1686 -1.1952,-0.5039 -0.4149,-0.3383 -0.6224,-0.6973 -0.6224,-1.0795 0,-0.4022 0.2395,-1.038 0.7272,-1.9028 0.4852,-0.8661 0.7593,-1.4646 0.8262,-1.8024 0.2191,-1.1229 0.3438,-2.1449 0.3651,-3.0653 0,0.9204 0,0.2381 0,-2.0547 l 0,-10.1046 c -0.6046,-0.2256 -1.2345,-0.3377 -1.886,-0.3377 -2.7402,0 -4.1087,1.1573 -4.1087,3.4707 0,0.5184 0.1567,0.9656 0.4718,1.3459 0.3132,0.3843 0.7287,0.5734 1.2438,0.5734 0.2275,0 0.5348,-0.0897 0.9277,-0.2701 0.3923,-0.1799 0.7015,-0.27 0.9258,-0.27 0.517,0 0.9378,0.1758 1.2635,0.5228 0.3258,0.3471 0.4885,0.7804 0.4885,1.2974 0,0.9663 -0.3942,1.7294 -1.178,2.2903 -0.6742,0.4944 -1.5164,0.7405 -2.5279,0.7405 -1.6617,0 -3.0201,-0.6158 -4.0754,-1.8514 -1.0318,-1.1666 -1.5488,-2.5942 -1.5488,-4.2778 0,-2.2916 0.7844,-4.0325 2.3579,-5.2204 1.4136,-1.1029 3.3022,-1.6511 5.6589,-1.6511 0.6509,0 1.6338,0.1068 2.9471,0.3199 1.3141,0.2138 2.2962,0.3199 2.9479,0.3199 0.8987,0 1.6618,-0.215 2.2903,-0.6398 0.2017,-0.1353 0.6291,-0.5276 1.2801,-1.1799 0.4275,-0.4261 0.876,-0.6384 1.3472,-0.6384 1.3472,0 2.0559,0.7633 2.1209,2.2889 0.1129,2.4933 -1.4804,3.739 -4.7814,3.739 -0.4705,0 -1.1568,-0.0346 -2.0565,-0.1009 z m 157.245,28.5326 c 0.6131,-1.19 1.4751,-1.7832 2.5881,-1.7832 0.998,0 1.9385,0.8998 2.8204,2.7037 0.7665,1.5355 1.1514,2.8968 1.1514,4.0879 0,1.3035 -0.8063,1.9545 -2.4176,1.9545 -0.7677,0 -1.88,-0.5847 -3.3382,-1.7553 -1.4572,-1.17 -2.3399,-1.7547 -2.6464,-1.7547 -0.4986,0 -0.9677,0.1527 -1.4111,0.4619 -0.4411,0.3052 -0.6622,0.7074 -0.6622,1.2084 0,0.7658 0.9602,1.5152 2.8776,2.2438 2.9552,1.1122 4.7389,1.8615 5.3528,2.2425 1.9186,1.229 2.8782,2.8417 2.8782,4.8359 0,2.0713 -0.7107,3.7397 -2.1295,5.0059 -1.4202,1.2668 -3.1849,1.8999 -5.2952,1.8999 -1.2265,0 -2.3793,-0.2879 -3.4524,-0.8627 -1.0372,1.1123 -2.0346,1.6678 -2.9943,1.6678 -1.0736,0 -2.1481,-0.9205 -3.2212,-2.7622 -0.9982,-1.6882 -1.4971,-3.1269 -1.4971,-4.3162 0,-1.6499 0.8646,-2.4748 2.59,-2.4748 0.6525,0 1.9086,0.6815 3.7701,2.0434 1.861,1.3631 3.0781,2.042 3.6535,2.042 1.5741,0 2.3598,-0.6139 2.3598,-1.8402 0,-0.9604 -0.9767,-1.8031 -2.9352,-2.5318 -3.2997,-1.19 -5.1412,-1.9001 -5.5248,-2.1297 -1.9949,-1.1129 -2.9924,-2.6281 -2.9924,-4.5472 0,-1.9173 0.6145,-3.4816 1.841,-4.69 1.229,-1.2079 2.8017,-1.8117 4.7191,-1.8117 1.2284,0 2.5325,0.286 3.9156,0.8621 z m -25.8742,12.1425 c 0.0372,1.1515 0.4791,2.0527 1.324,2.7058 0.8442,0.651 1.8609,0.9789 3.0501,0.9789 0.8449,0 1.9564,-0.3458 3.3387,-1.0361 1.3797,-0.6907 2.1675,-1.0379 2.3588,-1.0379 1.7645,0 2.6472,0.8448 2.6472,2.5337 0,1.6492 -1.0553,2.9918 -3.165,4.0285 -1.6889,0.844 -3.4729,1.2662 -5.353,1.2662 -3.1456,0 -5.678,-1.1522 -7.596,-3.4537 -1.8037,-2.1481 -2.7055,-4.8147 -2.7055,-7.9995 0,-3.0308 0.9218,-5.6111 2.7646,-7.74 1.8389,-2.1289 4.2573,-3.1941 7.2497,-3.1941 2.6864,0 4.9216,0.8057 6.7048,2.4169 1.7845,1.6108 2.6757,3.7411 2.6757,6.3883 0,3.0321 -2.3401,4.5465 -7.0206,4.5465 -0.6909,0 -1.7368,-0.067 -3.1357,-0.2016 -1.401,-0.1355 -2.4462,-0.2019 -3.1378,-0.2019 z m 3.2805,-3.9712 c 2.8004,0 4.2014,-0.5953 4.2014,-1.7838 0,-1.4188 -1.0936,-2.1291 -3.2811,-2.1291 -1.2654,0 -2.3292,0.3465 -3.1933,1.0361 -0.8635,0.6909 -1.332,1.6497 -1.4097,2.8768 l 3.6827,0 z m -26.0247,-6.1579 c 1.9179,-1.8024 3.8351,-2.7043 5.7544,-2.7043 2.6858,0 4.8526,1.2085 6.5037,3.6255 1.4188,2.1481 2.1283,4.6241 2.1283,7.4247 0,2.8398 -0.7095,5.3523 -2.1283,7.5398 -1.612,2.5303 -3.7609,3.7986 -6.4467,3.7986 -1.3802,0 -2.5695,-0.3092 -3.5683,-0.9119 -1.19,-0.7194 -1.7832,-1.7175 -1.7832,-2.9637 0,-1.7182 0.7664,-2.5716 2.3021,-2.5716 l 0.9205,0 c 0.4214,0 0.7487,0 0.9783,0 1.1885,0 2.1667,-0.5369 2.9338,-1.6108 0.6909,-0.9602 1.0374,-2.0533 1.0374,-3.2804 0,-1.4201 -0.3644,-2.6088 -1.0925,-3.5677 -0.8068,-1.1128 -1.8999,-1.6684 -3.2817,-1.6684 -1.5728,0 -2.7812,0.6305 -3.626,1.898 -0.6902,1.0353 -1.0367,2.3964 -1.0367,4.0861 l 0,9.725 c 1.7646,0.3444 2.648,1.229 2.648,2.6499 0,0.9583 -1.0951,2.3772 -3.2797,4.2565 -2.1881,1.8802 -3.7795,2.8193 -4.7762,2.8193 -0.539,0 -1.0664,-0.3053 -1.5829,-0.9192 -0.5188,-0.6139 -0.7771,-1.1905 -0.7771,-1.7275 0,-0.4208 0.4029,-1.2848 1.2099,-2.5881 0.3053,-0.4999 0.4592,-2.571 0.4592,-6.2165 l 0,-12.0855 -0.5774,0.1156 c -0.6118,0.1148 -1.1687,-0.1156 -1.6663,-0.681 -0.4999,-0.5668 -0.75,-1.1514 -0.75,-1.7566 0,-0.8728 0.9019,-1.985 2.7056,-3.3467 1.8031,-1.3626 3.165,-2.0434 4.086,-2.0434 1.1887,0 2.0913,0.9019 2.7058,2.7043 z m -21.0387,-2.7613 c 3.3367,0 5.8692,0.9868 7.5973,2.9631 1.7248,1.9763 2.5883,4.6521 2.5883,8.0288 0,3.2995 -0.8435,5.9475 -2.5319,7.9411 -1.7653,2.1103 -4.2778,3.1661 -7.5397,3.1661 -3.2604,0 -5.7928,-1.0358 -7.5946,-3.1077 -1.7289,-1.9566 -2.5908,-4.5852 -2.5908,-7.8842 0,-3.1847 0.884,-5.7949 2.6472,-7.8255 1.8415,-2.1888 4.3151,-3.2817 7.4242,-3.2817 z m 0.0564,16.8046 c 2.993,0 4.4882,-2.1104 4.4882,-6.331 0,-1.4575 -0.4008,-2.7244 -1.2079,-3.7989 -0.8056,-1.0737 -1.9185,-1.6112 -3.3367,-1.6112 -1.4196,0 -2.5325,0.5953 -3.3382,1.7851 -0.7306,1.0361 -1.093,2.3023 -1.093,3.7981 0,4.1047 1.4952,6.1579 4.4876,6.1579 z m -29.4875,-5.6974 c 0,-3.2225 0.9781,-5.9097 2.9346,-8.0572 1.9563,-2.1481 4.5279,-3.2233 7.7121,-3.2233 1.6883,0 3.2995,0.4407 4.8347,1.3234 1.8024,0.998 2.7042,2.2821 2.7042,3.8562 0,0.7687 -0.3073,1.4204 -0.921,1.9566 -0.6134,0.5388 -1.3048,0.8062 -2.0719,0.8062 -0.1912,0 -0.9591,-0.4312 -2.3023,-1.2955 -1.3424,-0.8632 -2.3971,-1.2953 -3.1634,-1.2953 -1.3826,0 -2.4384,0.6337 -3.1663,1.9007 -0.5761,0.9967 -0.8635,2.2445 -0.8635,3.7403 0,1.4964 0.3643,2.7421 1.0938,3.7395 0.8042,1.1136 1.9372,1.6705 3.3944,1.6705 0.7673,0 1.8908,-0.2974 3.3674,-0.8933 1.4758,-0.5947 2.3505,-0.892 2.6187,-0.892 0.6126,0 1.152,0.2887 1.6106,0.8635 0.4613,0.5759 0.6915,1.1693 0.6915,1.7845 0,1.5734 -0.9789,2.8968 -2.936,3.9713 -1.6876,0.9204 -3.3943,1.3823 -5.1205,1.3823 -3.1849,0 -5.7352,-1.1143 -7.6551,-3.3389 -1.8417,-2.111 -2.762,-4.778 -2.762,-7.9995 z m -5.8348,-13.166 c 0,0.7301 -0.2787,1.3341 -0.8348,1.8138 -0.5569,0.4799 -1.1993,0.7194 -1.928,0.7194 -0.6537,0 -1.5536,-0.5369 -2.7043,-1.6119 -0.8063,-0.7666 -1.6127,-1.5544 -2.4171,-2.3599 -1.1519,-0.9199 -2.4752,-1.3812 -3.9725,-1.3812 -1.1123,0 -2.0898,0.3372 -2.9346,1.0068 -0.8441,0.673 -1.2655,1.545 -1.2655,2.6208 0,1.3784 1.9377,2.819 5.8128,4.3149 4.3721,1.6492 7.3844,3.0887 9.0348,4.3164 3.4907,2.5702 5.2368,6.3683 5.2368,11.3961 0,4.449 -1.5722,8.0173 -4.7178,10.7031 -2.9559,2.5703 -6.6967,3.8557 -11.2214,3.8557 -4.4153,0 -8.1369,-1.1128 -11.1658,-3.3381 -3.4165,-2.4555 -5.1234,-5.8135 -5.1234,-10.0714 0,-3.1072 0.9788,-5.6396 2.9367,-7.596 1.9563,-1.9578 4.4874,-2.9353 7.5959,-2.9353 1.3413,0 2.5133,0.2874 3.5107,0.8627 1.1885,0.6916 1.7851,1.6684 1.7851,2.934 0,1.2676 -0.7492,2.208 -2.2469,2.8217 -0.1521,0.0386 -1.4761,0.3446 -3.9707,0.9213 -1.4585,0.6504 -2.1867,1.898 -2.1867,3.7403 0,2.1489 0.9397,3.8357 2.8198,5.0648 1.6492,1.0732 3.6069,1.6101 5.87,1.6101 2.6094,0 4.7769,-0.7281 6.5042,-2.1854 1.7262,-1.4582 2.5889,-3.4736 2.5889,-6.0439 0,-0.3436 -0.0378,-0.8826 -0.114,-1.6112 -0.2688,-2.4157 -1.3432,-4.3177 -3.2233,-5.6981 -1.0366,-0.8063 -3.1464,-1.8416 -6.3305,-3.1078 -3.1848,-1.2656 -5.6197,-2.4919 -7.3086,-3.6833 -2.5313,-1.8409 -3.6255,-4.2977 -3.2811,-7.3656 0.1925,-1.9949 1.1892,-3.7988 2.9929,-5.4094 1.9963,-1.8423 4.489,-2.7621 7.4825,-2.7621 0.9192,0 2.2432,0.2488 3.9707,0.7474 0.1912,-0.0778 0.6901,-0.4216 1.4952,-1.0361 0.499,-0.3843 1.0942,-0.5753 1.7851,-0.5753 1.4953,0 2.8385,1.2854 4.0283,3.857 0.9974,2.1861 1.4966,4.0098 1.4966,5.4657 z m -1.754,-30.6456 c 1.4972,5.0651 3.5292,9.4191 6.1015,13.0646 3.49,4.9481 7.3464,7.4233 11.5659,7.4233 1.3048,0 3.157,-0.4996 5.5546,-1.4977 2.3977,-0.9961 3.7683,-1.4958 4.114,-1.4958 1.1136,0 2.0533,0.3444 2.8204,1.0359 0.7665,0.6909 1.1501,1.5921 1.1501,2.7056 0,2.4164 -1.4766,4.4125 -4.4304,5.9842 -2.4547,1.3059 -5.0265,1.9569 -7.7116,1.9569 -6.9064,0 -12.6435,-3.3379 -17.2087,-10.0142 -3.4138,-4.986 -5.9848,-11.4718 -7.7115,-19.4513 l -1.6684,-0.1712 0,5.5248 c 1.9955,0.5362 2.9929,1.4181 2.9929,2.6465 0,1.3426 -1.2569,3.3196 -3.7688,5.9277 -2.5145,2.61 -4.4424,3.9135 -5.785,3.9135 -0.8435,0 -1.5821,-0.2994 -2.2152,-0.892 -0.6331,-0.5945 -0.9496,-1.3153 -0.9496,-2.1595 0,-0.3437 0.6124,-1.2455 1.8421,-2.7043 0.9969,-1.1501 1.4966,-3.6247 1.4966,-7.4228 l 0,-11.9137 c 0,-0.4983 -0.3843,-1.2005 -1.1527,-2.1012 -0.7671,-0.9011 -1.148,-1.5051 -1.148,-1.8117 0,-1.8807 1.8408,-2.819 5.5227,-2.819 2.8384,0 4.2586,0.7857 4.2586,2.3579 0,0.4997 -0.1832,1.2375 -0.5468,2.2158 -0.3644,0.9783 -0.5468,1.7347 -0.5468,2.2736 l 0,2.3593 c 0.8347,0.2303 1.6881,0.3451 2.5615,0.3451 1.9752,0 3.6441,-0.4605 5.0073,-1.381 1.5914,-1.0744 2.3883,-2.5505 2.3883,-4.4304 0,-2.4568 -1.152,-4.3748 -3.4535,-5.7571 -1.9187,-1.1887 -4.1824,-1.7832 -6.7918,-1.7832 -2.6843,0 -5.0821,0.5183 -7.1924,1.5536 -2.6872,1.3054 -4.0296,3.1469 -4.0296,5.5246 0,1.0745 0.6238,2.5039 1.8695,4.2871 1.2489,1.784 1.87,2.889 1.87,3.3104 0,0.9218 -0.3145,1.7174 -0.9471,2.3884 -0.6331,0.6703 -1.4121,1.0073 -2.3319,1.0073 -2.1105,0 -3.8364,-1.1328 -5.1783,-3.3957 -1.1913,-1.9187 -1.7853,-4.0098 -1.7853,-6.2735 0,-4.68 1.8024,-8.3452 5.41,-10.9911 3.2226,-2.342 7.2524,-3.5114 12.0855,-3.5114 4.7962,0 8.7868,1.0347 11.9694,3.1079 3.7219,2.4169 5.5834,5.9089 5.5834,10.4741 0,2.9546 -0.8635,5.3624 -2.5902,7.2218 -1.7256,1.8615 -4.0669,2.9844 -7.0207,3.3679 z m 17.7829,-4.8923 c 3.3374,0 5.8685,0.9882 7.596,2.9632 1.7281,1.9776 2.5902,4.6522 2.5902,8.0287 0,3.3003 -0.8441,5.9475 -2.5318,7.9425 -1.7646,2.1097 -4.2778,3.1649 -7.539,3.1649 -3.2617,0 -5.7922,-1.036 -7.5973,-3.1079 -1.7254,-1.9569 -2.5889,-4.5844 -2.5889,-7.8834 0,-3.1847 0.8833,-5.7949 2.648,-7.8282 1.8408,-2.1867 4.3156,-3.2798 7.4228,-3.2798 z m 0.0584,16.806 c 2.9911,0 4.4882,-2.1116 4.4882,-6.3324 0,-1.4572 -0.4043,-2.7229 -1.2092,-3.7979 -0.8049,-1.0744 -1.9172,-1.6127 -3.3374,-1.6127 -1.4196,0 -2.5324,0.5966 -3.3375,1.7859 -0.728,1.0358 -1.0936,2.3007 -1.0936,3.7986 0,4.1033 1.4984,6.1585 4.4895,6.1585 z m 14.7899,-20.4892 -0.787,0.0585 c -0.4893,0.0365 -0.9205,-0.1819 -1.2942,-0.6616 -0.3729,-0.4805 -0.5662,-0.9903 -0.5662,-1.5272 0,-0.9975 0.8734,-2.1462 2.6275,-3.4522 1.7552,-1.3053 3.1477,-1.9557 4.1742,-1.9557 1.1109,0 1.7925,1.9744 2.0613,5.927 0,0.268 0.0186,2.8004 0.0577,7.5954 l 0,13.2947 c 0,0.1153 0.5178,0.643 1.5531,1.5821 1.0345,0.941 1.5555,1.6604 1.5555,2.1587 0,1.6897 -1.4202,2.5319 -4.2586,2.5319 -0.3074,0 -0.7592,-0.0194 -1.3545,-0.0572 -0.5947,-0.0384 -1.0446,-0.0563 -1.3511,-0.0563 -1.9187,0 -3.0316,-0.0385 -3.3381,-0.1161 -1.1528,-0.3073 -1.727,-1.1123 -1.727,-2.4165 0,-0.2687 0.4408,-0.8534 1.324,-1.7558 0.8827,-0.9026 1.3234,-1.91 1.3234,-3.0217 l 0,-18.128 z m 14.0419,0 -0.785,0.0585 c -0.4911,0.0365 -0.9226,-0.1819 -1.2955,-0.6616 -0.3736,-0.4805 -0.5667,-0.9903 -0.5667,-1.5272 0,-0.9975 0.8733,-2.1462 2.6288,-3.4522 1.7558,-1.3053 3.1448,-1.9557 4.1715,-1.9557 1.1142,0 1.7939,1.9744 2.0626,5.927 0,0.268 0.0192,2.8004 0.0578,7.5954 l 0,13.2947 c 0,0.1153 0.5175,0.643 1.5536,1.5821 1.0358,0.941 1.5536,1.6604 1.5536,2.1587 0,1.6897 -1.4189,2.5319 -4.2581,2.5319 -0.3079,0 -0.7591,-0.0194 -1.353,-0.0572 -0.5948,-0.0384 -1.0441,-0.0563 -1.352,-0.0563 -1.9179,0 -3.0321,-0.0385 -3.3381,-0.1161 -1.1514,-0.3073 -1.7267,-1.1123 -1.7267,-2.4165 0,-0.2687 0.4421,-0.8534 1.324,-1.7558 0.8826,-0.9026 1.3232,-1.91 1.3232,-3.0217 l 0,-18.128 z m 16.8731,-7.6538 c 1.2662,0 2.2737,0.4693 3.0216,1.4103 0.7479,0.9397 1.1216,2.062 1.1216,3.3666 0,1.1893 -0.4123,2.2346 -1.2371,3.1352 -0.8249,0.9024 -1.833,1.3544 -3.0215,1.3544 -1.1117,0 -2.0812,-0.4613 -2.9055,-1.383 -0.8242,-0.9204 -1.2377,-1.9365 -1.2377,-3.0501 0,-1.3432 0.3843,-2.4834 1.1508,-3.4231 0.7679,-0.941 1.8031,-1.4103 3.1078,-1.4103 z m -5.6967,30.5593 c 0,-0.5759 0.9192,-1.4215 2.7615,-2.533 0.4605,-0.3835 0.6909,-2.7428 0.6909,-7.0771 0,-1.6518 -0.077,-2.5337 -0.2304,-2.648 l -1.9571,-0.4624 c -0.6909,-0.1521 -1.0366,-0.7082 -1.0366,-1.6671 0,-0.8064 0.9125,-1.908 2.7343,-3.3103 1.8216,-1.4003 3.1754,-2.0997 4.0575,-2.0997 0.8819,0 1.4386,1.3432 1.6697,4.029 0.0762,0.9211 0.1135,2.6851 0.1135,5.2932 l 0,5.9289 c 0,0.6908 0.5481,1.5821 1.6404,2.6759 1.0937,1.0929 1.6413,1.8887 1.6413,2.387 0,1.3054 -1.0167,1.9577 -3.0502,1.9577 l -4.7769,0 c -1.3438,0 -2.2835,-0.0954 -2.8198,-0.288 -0.9597,-0.3451 -1.4381,-1.0731 -1.4381,-2.1861 z m 17.7824,-12.0277 -0.6339,0.1718 c -0.651,0 -1.2463,-0.2209 -1.784,-0.6622 -0.5375,-0.4407 -0.8041,-0.9881 -0.8041,-1.6412 0,-0.9199 0.8534,-2.0799 2.5588,-3.4801 1.7083,-1.4004 3.0416,-2.1012 4.0011,-2.1012 0.8827,0 1.4582,0.4214 1.7248,1.2649 0.1547,0.501 0.2317,1.4401 0.2317,2.8219 1.9564,-2.7244 4.2784,-4.0868 6.9636,-4.0868 3.6453,0 5.4671,2.6971 5.4671,8.0959 l 0,5.6103 c 0.5747,0.0392 1.1607,0.3178 1.7539,0.8342 0.5953,0.5295 0.8947,1.0566 0.8947,1.5941 0,1.0438 -1.0082,2.5225 -3.0236,4.4304 -2.0141,1.91 -3.5385,2.8584 -4.5745,2.8584 -0.6517,0 -1.2092,-0.249 -1.6697,-0.7486 -0.4606,-0.4992 -0.6896,-1.0931 -0.6896,-1.7832 0,0.3829 0.0194,0.5753 0.0585,0.5753 0.1527,0 0.4214,-0.969 0.8042,-2.8968 0.5755,-2.8305 0.8629,-4.7184 0.8629,-5.6873 0,-2.0427 -0.0751,-3.4052 -0.2284,-4.0583 -0.3855,-1.6218 -1.1906,-2.4361 -2.419,-2.4361 -2.0712,0 -3.376,1.0638 -3.914,3.1842 -0.2291,0.8918 -0.3439,2.7248 -0.3439,5.5054 0,0.969 0.5761,1.9571 1.7262,2.9645 1.1514,0.9969 1.7275,1.7547 1.7275,2.2538 0,1.5059 -2.6101,2.2629 -7.8284,2.2629 -2.9154,0 -4.3726,-0.8992 -4.3726,-2.7043 0,-0.5356 0.3071,-0.9775 0.921,-1.324 0.8435,-0.4605 1.401,-0.8435 1.6684,-1.1506 0.6139,-0.6512 0.9213,-1.7076 0.9213,-3.1637 l 0,-6.5036 z m 26.1188,6.7903 c -2.6494,-1.6112 -3.9726,-3.5497 -3.9726,-5.812 0,-5.1805 4.0868,-7.7515 12.2575,-7.7129 -0.5747,-1.5715 -0.8621,-2.7428 -0.8621,-3.5107 0,-1.2284 0.4812,-2.2437 1.438,-3.0502 0.961,-0.8055 2.0719,-1.209 3.3402,-1.209 1.1501,0 2.2145,0.4035 3.1928,1.209 0.9782,0.8065 1.4673,1.7661 1.4673,2.8776 0,0.8065 -0.3066,1.4481 -0.9198,1.9278 -0.6139,0.4805 -1.3247,0.7202 -2.131,0.7202 -0.7279,0 -1.4561,-0.2309 -2.1859,-0.6909 -0.3452,-0.0384 -0.5847,0.01 -0.7194,0.1428 -0.1355,0.136 -0.1819,0.375 -0.1428,0.7199 0,0.3857 0.7844,1.4681 2.3586,3.2519 1.5735,1.7845 2.3592,3.2904 2.3592,4.518 0,2.5703 -1.0923,4.4703 -3.279,5.6982 -1.0752,0.6137 -3.1091,1.1884 -6.1015,1.726 -2.1867,0.4213 -3.2803,0.9788 -3.2803,1.6691 0,1.0745 1.3438,1.6125 4.0283,1.6125 0.4983,0 1.2667,-0.0496 2.302,-0.1446 1.0361,-0.0969 1.8039,-0.1439 2.3036,-0.1439 1.9936,0 3.644,0.422 4.948,1.2662 1.5352,0.9967 2.3023,2.4348 2.3023,4.3162 0,2.8371 -1.5344,5.1021 -4.6044,6.7905 -2.5311,1.381 -5.3708,2.0706 -8.5178,2.0706 -2.4548,0 -4.6807,-0.3638 -6.6749,-1.0931 -2.7242,-0.9975 -4.0873,-2.5497 -4.0873,-4.6608 0,-0.921 0.3742,-1.6975 1.1234,-2.3308 0.748,-0.6336 1.5835,-0.9495 2.5013,-0.9495 0.8456,0 2.0155,0.8534 3.5126,2.5609 1.4966,1.7083 2.8962,2.561 4.2016,2.561 1.2649,0 2.4555,-0.2694 3.5677,-0.8063 1.3818,-0.6517 2.0725,-1.5344 2.0725,-2.6467 0,-1.6511 -1.3816,-2.4752 -4.1444,-2.4752 -0.4613,0 -1.1607,0.0392 -2.101,0.1154 -0.9398,0.077 -1.6399,0.1155 -2.0998,0.1155 -2.3029,0 -3.9334,-0.1526 -4.8936,-0.4612 -1.8026,-0.5754 -2.7037,-1.7262 -2.7037,-3.4524 0,-1.7646 1.381,-3.3374 4.1444,-4.7191 z m 5.3516,-3.3374 c 2.916,0 4.374,-0.9596 4.374,-2.8782 0,-1.9936 -1.3048,-2.9923 -3.9148,-2.9923 -0.9961,0 -1.898,0.2687 -2.7031,0.8062 -0.8055,0.5375 -1.2097,1.2849 -1.2097,2.2432 0,1.8807 1.1514,2.8211 3.4536,2.8211 z M 529.024,130.224 c -1.1626,0 -1.7507,-0.4506 -1.7507,-1.3485 0,-0.5383 0.5748,-1.2337 1.7195,-2.0886 1.0545,-0.7863 1.8967,-1.2197 2.525,-1.3126 0.8523,-0.1361 1.279,0.4831 1.279,1.8529 l 0,6.1969 c 1.0134,-1.1685 2.1913,-1.7499 3.5384,-1.7499 1.3706,0 2.3473,0.3702 2.9307,1.1122 0.519,0.6717 0.7771,1.7044 0.7771,3.0966 l 0,3.9102 c 1.0074,0.2887 1.5139,0.8281 1.5139,1.6139 0,0.2489 -0.0791,0.4958 -0.2357,0.7427 -1.3935,2.1774 -2.8504,3.2657 -4.3806,3.2657 -0.4029,0 -0.7739,-0.1222 -1.1096,-0.3696 -0.3385,-0.2462 -0.5052,-0.5642 -0.5052,-0.945 0,-0.2901 0.1946,-0.8462 0.5894,-1.6665 0.3929,-0.8196 0.5886,-1.4546 0.5886,-1.9034 0,-1.4148 -0.0463,-2.4242 -0.1366,-3.0307 -0.2005,-1.3678 -0.6837,-2.0341 -1.446,-1.9876 -1.1011,0.0696 -1.808,0.7181 -2.1244,1.9532 -0.1327,0.5175 -0.1998,1.5176 -0.1998,3.0001 0,0.6491 0.3364,1.2657 1.0095,1.8522 0.6762,0.5841 1.01,1.0108 1.01,1.2782 0,0.8523 -1.2225,1.283 -3.6706,1.283 -0.2018,0 -1.0997,-0.0485 -2.6943,-0.1356 -0.3119,-0.0237 -0.59,-0.1737 -0.8257,-0.4565 -0.2357,-0.2813 -0.3518,-0.5892 -0.3518,-0.9277 0,-0.424 0.1659,-0.7181 0.5039,-0.8734 0.5162,-0.2482 0.8302,-0.4386 0.9423,-0.5734 0.3357,-0.4048 0.5037,-1.0777 0.5037,-2.0221 l 0,-9.7667 z m 17.6455,9.4316 c 0.0226,0.6736 0.2847,1.2005 0.7758,1.5835 0.4957,0.3822 1.0897,0.5713 1.7865,0.5713 0.4932,0 1.1442,-0.2024 1.9525,-0.6052 0.8097,-0.4048 1.2694,-0.6086 1.3797,-0.6086 1.0353,0 1.5509,0.4957 1.5509,1.4833 0,0.965 -0.6171,1.7513 -1.8508,2.358 -0.9903,0.493 -2.0341,0.7412 -3.1338,0.7412 -1.8437,0 -3.3243,-0.6736 -4.4478,-2.0221 -1.0558,-1.2558 -1.5813,-2.8185 -1.5813,-4.6807 0,-1.7747 0.5388,-3.2844 1.6159,-4.5301 1.0777,-1.2456 2.4912,-1.87 4.2453,-1.87 1.5707,0 2.8788,0.4704 3.9228,1.4141 1.0433,0.9452 1.5669,2.192 1.5669,3.7416 0,1.7712 -1.3698,2.6613 -4.1113,2.6613 -0.403,0 -1.0134,-0.0418 -1.8343,-0.1214 -0.8196,-0.0778 -1.4314,-0.1162 -1.837,-0.1162 z m 1.9233,-2.3254 c 1.6372,0 2.4573,-0.3484 2.4573,-1.042 0,-0.8315 -0.6403,-1.2476 -1.9198,-1.2476 -0.7426,0 -1.3638,0.2025 -1.8688,0.6052 -0.5071,0.4043 -0.7817,0.9657 -0.8248,1.6844 l 2.1561,0 z" />
  <path
     id="path6"
     style="fill:#1b1918;fill-rule:evenodd"
     d="m 271.462,241.5238 0.0578,-0.2156 4.1308,-3.2954 1.5245,-1.2242 1.8441,-1.4706 2.1366,-1.6862 2.4023,-1.8672 2.6525,-2.0327 2.8758,-2.1597 3.0837,-2.2598 3.2723,-2.3407 3.4456,-2.3907 3.6034,-2.4216 3.742,-2.4138 3.8613,-2.3946 3.973,-2.3406 4.0654,-2.2676 4.1424,-2.1597 4.2116,-2.0327 4.2772,-1.8748 4.3271,-1.6939 4.3773,-1.4745 4.4234,-1.2319 4.4734,-0.9355 4.5235,-0.6045 4.5736,-0.204 4.6121,0.2618 4.6274,0.8123 4.5697,1.4475 4.4119,2.1443 4.1116,2.8566 3.6958,3.5303 3.1953,4.1231 3.126,5.4436 0.8739,3.5534 0.4543,2.1443 0.385,2.1174 0.3234,2.0904 0.2618,2.0443 0.2232,2.0172 0.1771,1.9827 0.154,1.9557 0.1232,1.9172 0.1078,1.8864 0.1001,1.8594 0.1001,1.8325 0.1001,1.8133 0.1078,1.7901 0.127,1.7748 0.9702,11.7958 2.2675,3.0336 0.7546,4.689 2.3753,-0.5851 5.4629,6.4099 0.9162,1.0779 0.9047,1.0703 0.9124,1.0818 0.9124,1.0856 0.9086,1.0856 0.793,0.9471 0.181,0.1193 0.7584,0.4697 0.8585,0.5043 0.9432,0.5275 1.0356,0.5543 1.1164,0.5736 1.1934,0.5891 1.2666,0.6044 1.3359,0.6198 1.4052,0.6237 1.4668,0.6352 1.5322,0.6429 1.5899,0.6506 1.6478,0.6506 1.7016,0.6583 1.7478,0.6584 1.7978,0.6583 1.8479,0.6583 1.8941,0.6583 1.9326,0.6583 1.9788,0.6545 2.0096,0.6506 2.0481,0.6468 2.0827,0.639 2.1136,0.6314 2.1443,0.6275 2.1713,0.616 2.1944,0.6082 2.2213,0.5968 2.2444,0.589 2.256,0.5736 2.2175,0.5428 2.1751,0.5159 2.129,0.4851 2.0827,0.4581 2.0404,0.435 2.0019,0.4196 1.9634,0.4043 1.436,0.2926 C 465.1221,233.5933 405.3233,181.6364 333.7633,181.6364 c -57.5429,0 -107.4748,33.601 -131.2011,82.1854 l 0.5968,-0.1501 2.4908,-0.5236 3.1607,-0.5543 2.2944,-0.1194 1.3244,-0.1424 1.3743,-0.2118 1.4206,-0.2887 1.4668,-0.3619 1.5207,-0.435 1.5591,-0.5043 1.5938,-0.566 1.6401,-0.6313 1.6823,-0.693 1.7093,-0.743 1.744,-0.7892 1.7709,-0.8354 1.8094,-0.8701 1.8325,-0.897 1.8517,-0.9162 1.8864,-0.9394 1.9095,-0.947 1.9365,-0.9509 1.9672,-0.9471 1.9904,-0.9355 2.0327,-0.9201 2.0558,-0.8931 2.0904,-0.8547 2.1251,-0.8161 2.1713,-0.77 2.2136,-0.7045 2.2598,-0.6352 2.2984,-0.5505 2.356,-0.4543 2.41,-0.3503 4.3541,-0.3966 z m 21.1277,146.3692 c -25.1815,-0.2579 -24.6348,-10.0172 -26.6136,-19.9881 -2.4447,-12.3271 -3.0722,-18.0055 -1.0164,-25.9669 3.203,-12.4117 7.2723,-40.9541 12.6427,-60.5149 -0.4273,-2.1443 -0.4273,-2.1443 8.2386,-34.3941 11.2568,-8.8853 78.455,-65.2578 97.5846,-26.4519 2.5601,9.7015 2.1905,19.0295 3.0953,29.2777 -0.539,0.1078 -1.0741,0.2117 -1.6093,0.3195 -2.1481,0.4273 -4.2963,0.8508 -6.4445,1.2782 -9.3743,4.1731 -18.7331,8.4195 -28.0958,12.6696 -0.1232,-1.0163 -0.1463,-1.9634 -0.1771,-2.9143 7.7458,-6.8642 16.5233,-9.7707 26.117,-12.5926 -0.2887,-1.4591 -0.5775,-2.9143 -0.8547,-4.3003 -11.6571,2.3138 -35.6375,6.3175 -33.5432,26.5867 1.486,0.2618 3.049,0.512 4.612,0.7584 -3.076,6.1905 -4.9046,9.0201 -4.5928,15.8188 4.4773,-0.3311 6.1982,-2.9066 10.3406,-3.7266 -1.4475,3.5534 -1.5322,9.151 1.9557,11.4878 2.9797,-0.2733 7.9228,-3.4841 13.5512,-5.6361 -0.7699,1.744 -0.7699,1.744 -0.1308,4.9662 13.5666,-2.691 20.2037,-13.4126 32.3344,-15.8188 2.3907,2.7911 4.793,5.6631 7.1953,8.535 8.6697,6.306 30.6405,14.8063 55.6757,21.0854 25.0352,6.2713 40.9195,6.0672 45.4507,16.966 4.535,10.9026 4.3425,30.7406 -15.4108,39.6452 -5.3396,1.2165 -10.5984,2.4215 -15.8457,3.7035 -104.4642,20.6349 -159.2776,19.4722 -184.4591,19.2066 z m -35.422,-10.3136 c -2.3637,0.1386 -4.6659,0.4504 -6.9026,1.0356 -16.8891,4.4503 -18.891,13.5166 -28.5001,15.8072 -9.6091,2.2984 -17.813,-4.4388 -27.6762,-5.5129 -4.9277,-0.5274 -9.3049,2.3831 -10.7678,1.0703 5.74,-3.2223 11.2606,-6.6563 17.4049,-7.2954 17.7283,-1.8402 23.0102,-1.9018 28.0419,-6.4946 5.0317,-4.6005 15.3337,-4.177 10.8487,-15.8727 -4.4927,-11.6995 -23.6724,14.4483 -31.3489,15.1297 -7.6842,0.6853 -11.2491,-1.2435 -16.8274,-1.8748 -20.5079,2.8527 -25.5935,13.8361 -49.6431,1.5707 19.8726,3.3647 42.6249,-12.5234 56.0222,-11.892 10.7948,0.5158 21.555,-11.2953 16.7658,-19.8727 -7.4378,-13.3203 -35.7068,20.9275 -48.3534,22.3481 -12.6427,1.4244 -22.2364,-6.0057 -43.0137,-3.8383 14.6215,-9.4281 61.7468,-3.3185 53.054,-19.7456 -8.6852,-16.4386 -29.4779,3.461 -38.0822,7.9961 -9.3511,4.92 -16.3693,-5.1511 -42.3593,0.0192 15.3068,-10.1326 19.5608,-8.458 32.2613,-9.5898 12.7082,-1.1434 22.0516,-15.8342 33.4432,-19.711 11.4069,-3.8729 18.1133,8.073 26.7022,10.7679 14.7177,4.6198 35.3103,-13.6668 23.4452,-17.4665 -11.8535,-3.7998 -15.4646,6.6293 -21.5242,7.8805 -11.4377,-1.2319 -17.4473,-13.6283 -30.294,-8.4888 -6.2637,2.5101 -20.4078,22.6099 -48.4382,12.0114 29.4818,-2.6333 32.2344,-16.481 46.802,-23.0372 14.5676,-6.5562 21.6166,3.5495 30.1631,5.2396 8.3733,1.6554 15.9151,-8.6736 21.8823,-10.2944 9.6591,-2.6178 5.8016,-15.1143 -6.7256,-8.0614 -6.1173,3.4455 -10.7101,9.713 -17.197,7.9921 -6.4716,-1.7208 -14.3482,-6.56 -29.4433,-1.2935 9.6823,-11.0489 19.9497,-3.3339 30.4942,-10.3598 10.5446,-7.022 14.2674,-10.6177 26.991,-12.662 20.3384,-0.4812 40.6114,-19.6185 60.1838,-20.8658 -8.2655,30.7483 -8.2617,30.7791 -7.842,32.8887 -5.3666,19.5647 -9.4397,48.1071 -12.6389,60.5188 -2.0596,7.9614 -1.4283,13.6398 1.0202,25.9669 0.4196,2.125 1.128,4.1192 2.0519,5.9864 z m 253.5822,-12.0306 c 14.0941,1.4437 26.0246,11.122 28.7195,24.7157 3.3685,16.9776 -8.8931,33.805 -27.2989,37.4546 -18.4021,3.6496 -36.1573,-7.2222 -39.5259,-24.1998 -1.7709,-8.9238 0.7815,-17.8091 6.2675,-24.758 1.0394,-0.2041 2.075,-0.4004 3.1183,-0.6083 5.4898,-1.3282 10.9912,-2.5794 16.5734,-3.8459 5.2935,-2.3215 9.2549,-5.3551 12.1461,-8.7583 z m -58.6747,18.2057 c 5.8401,4.535 10.0864,10.9834 11.5994,18.606 3.461,17.4627 -8.7198,34.6828 -27.1257,38.3324 -18.402,3.6535 -36.2381,-7.6149 -39.7029,-25.0775 -1.7093,-8.6159 0.3965,-17.1701 5.1664,-24.0651 15.0758,-2.0134 31.7185,-4.562 50.0628,-7.7958 z m -74.4936,10.7486 c 4.3772,4.2117 7.5264,9.6784 8.7776,15.9766 3.3685,16.9776 -8.3733,33.6973 -26.1363,37.2198 -17.7591,3.5226 -34.9908,-7.4493 -38.3594,-24.4269 -1.7901,-9.0239 0.693,-17.9747 6.0712,-24.9082 13.5782,-0.5967 29.986,-1.7324 49.6469,-3.8613 z m -75.2096,4.5004 c 2.7911,3.7458 4.8007,8.1346 5.7632,12.9815 3.5533,17.9092 -8.5581,35.4989 -26.9563,39.1485 -18.4136,3.6497 -36.3151,-7.9844 -39.8685,-25.8937 -3.2261,-16.2769 6.4831,-32.2805 22.094,-37.8049 2.0519,6.5138 7.0528,11.5416 25.8822,11.5724 3.7227,0.008 8.0691,0.027 13.0854,-0.004 z m 52.465,-107.9482 c 0.6776,-1.8056 0.2503,-3.9576 3.6535,-12.1269 47.1369,-29.2007 38.4055,-4.1231 -3.6535,12.1269 z m -8.277,-9.201 c -0.9702,-7.1375 66.3435,-47.5565 0,0 z m 184.6477,82.5126 2.4215,2.0596 2.3215,2.4062 c 2.7295,-13.3357 4.1693,-27.1295 4.1693,-41.2506 l 0,-0.0269 0,-0.0578 C 540.1084,270.7053 516.9327,219.1334 479.5704,181.7635 442.1927,144.382 390.6016,121.1985 333.7902,121.1947 l -0.0269,0 -0.0578,0 c -56.7922,0.0115 -108.364,23.1873 -145.734,60.5495 -32.7117,32.7079 -54.54,76.2914 -59.4909,124.7411 1.9134,-1.232 3.9037,-2.5756 5.998,-4.0385 12.4118,-98.8627 97.1496,-175.7546 199.2847,-175.7546 110.6315,0 200.8592,90.2315 200.8592,200.863 0,12.5734 -1.1896,24.8696 -3.4148,36.8117 z m 10.0441,11.9459 1.1588,2.1751 1.4206,3.3648 1.1164,3.4532 0.8123,3.5187 0.5121,3.5534 0.2194,3.5919 -0.0847,3.5957 -0.3734,3.5764 -0.6699,3.5495 -0.9663,3.5033 -1.2704,3.4341 -1.5669,3.3377 -1.8671,3.2223 -2.1713,3.0914 -2.4755,2.922 -2.7641,2.7256 -3.0567,2.5024 -3.3301,2.256 -3.5957,1.9749 -3.8421,1.6862 -2.6756,0.897 c -8.8777,14.5369 -19.4453,27.9418 -31.4259,39.9224 -38.5904,38.5865 -91.86,62.5206 -150.5347,62.536 l -0.0577,0 -0.027,0 c -58.6901,-0.008 -111.9867,-23.9495 -150.5886,-62.5553 -28.2883,-28.2882 -48.6922,-64.484 -57.5814,-104.8991 -12.1884,-8.2501 -33.4431,0.9701 -57.5275,5.6515 7.7112,-5.8748 17.7669,-11.6765 29.7667,-17.4126 -17.4781,0.6621 -37.8666,4.9662 -61.1309,11.2952 9.9247,-10.6562 27.4298,-25.1045 59.7488,-37.7164 l 0.4196,-0.1809 c -15.122,-1.0395 -29.3393,-4.793 -41.5585,-14.5099 35.9956,-0.0385 49.6123,-0.6968 65.9893,-9.5898 4.0808,-52.0454 26.9909,-98.9474 61.8932,-133.8458 38.5942,-38.5865 91.8638,-62.5207 150.5385,-62.536 l 0.0578,0 0.0269,0 c 58.694,0.008 111.9828,23.9495 150.5847,62.5552 38.5865,38.5942 62.5207,91.8638 62.5361,150.5385 l 0,0.0578 0,0.0269 c -0.004,16.762 -1.9672,33.0697 -5.6592,48.7307 z m -34.8214,63.9913 -0.8354,0.127 -4.4657,0.2503 -1.5284,-0.0578 c -36.2304,52.9347 -97.088,87.7907 -165.8376,87.7907 -89.1305,0 -165.0023,-58.5785 -191.1308,-139.197 -2.7334,-2.1174 -5.0818,-4.9431 -8.1462,-8.1153 9.5398,35.368 28.2691,67.0403 53.466,92.241 37.3776,37.3815 88.9687,60.565 145.784,60.5688 l 0.027,0 0.0577,0 c 56.7922,-0.0115 108.364,-23.1873 145.7302,-60.5495 10.0479,-10.048 19.0564,-21.1316 26.8792,-33.0582 z m -95.5403,10.995 -2.5525,-0.8701 -3.9114,-1.7555 -3.7189,-2.1097 -3.4994,-2.4484 -3.2492,-2.7757 -2.9798,-3.0953 -1.5861,-2.0211 -0.9047,1.7902 -2.2329,3.5264 -2.5639,3.2992 -2.8643,3.0529 -3.1568,2.7834 -3.434,2.4985 -3.692,2.1752 -3.9229,1.8402 -4.1424,1.4706 -4.331,1.0818 -4.4196,0.6545 -4.3888,0.2194 -4.331,-0.2002 -4.2386,-0.6044 -4.127,-0.9971 -3.9807,-1.3667 -3.8151,-1.7285 -3.6227,-2.0712 -3.4109,-2.41 -3.1645,-2.7218 -2.8989,-3.0336 -2.5986,-3.3224 -2.0597,-3.2723 -0.8315,1.6708 -2.2714,3.6688 -2.6179,3.434 -2.9335,3.18 -3.2377,2.8989 -3.5226,2.6024 -3.7997,2.2675 -4.0384,1.9134 -4.2695,1.5284 -3.9114,0.9817 c 16.7428,6.7217 35.0101,10.4368 54.1051,10.4368 28.2883,0 54.7248,-8.1424 77.1268,-22.171 z m -185.5602,-26.3018 -0.1193,-0.8008 -0.2195,-4.0961 0.1617,-4.0539 0.5352,-3.973 0.8777,-3.8844 1.2242,-3.7612 0.6622,-1.5477 -0.4928,0.3119 -2.3522,1.2473 -2.6255,1.0856 -2.8604,0.847 -2.9605,0.5428 -2.8912,0.2272 -2.7141,-0.0501 c 4.1346,6.3214 8.739,12.3116 13.7745,17.9054 z m -17.5435,-6.4677 4.589,6.8065 -15.1644,10.2327 c -1.178,0.7931 -2.4099,1.5669 -3.6996,2.3292 -1.2859,0.7661 -2.6025,1.3666 -3.9384,1.8171 -1.0933,0.3541 -2.2059,0.5081 -3.33,0.4619 -1.1203,-0.0462 -2.1983,-0.2502 -3.2262,-0.6198 -1.0356,-0.3696 -1.9903,-0.8893 -2.8719,-1.5591 -0.8893,-0.6776 -1.6362,-1.4591 -2.2483,-2.3677 -1.0202,-1.5129 -1.6631,-3.0182 -1.9364,-4.5196 -0.2695,-1.4937 -0.2041,-2.9451 0.2001,-4.331 0.412,-1.3975 1.1319,-2.7026 2.1675,-3.9345 1.0433,-1.2204 2.3522,-2.3253 3.9499,-3.2955 l 4.3849,6.4985 -0.4504,0.3041 c -0.3619,0.2426 -0.7469,0.5544 -1.1357,0.9394 -0.3927,0.3773 -0.7238,0.793 -0.9856,1.2396 -0.2618,0.4543 -0.4196,0.924 -0.4774,1.4129 -0.0615,0.4851 0.0655,0.9509 0.3812,1.4167 0.2502,0.3734 0.5505,0.6314 0.8931,0.7661 0.3504,0.1348 0.7199,0.1887 1.1126,0.1579 0.3965,-0.0308 0.7969,-0.1194 1.2127,-0.2734 0.4196,-0.1578 0.8162,-0.3388 1.2088,-0.5389 0.3927,-0.2002 0.7623,-0.4158 1.1011,-0.6353 0.3426,-0.2233 0.639,-0.4196 0.8777,-0.5813 l 17.3857,-11.7265 z m 3.5957,35.9918 -5.3704,-5.7632 -9.5206,8.8815 -0.8315,-0.0616 -4.154,-4.4504 -0.004,-0.8354 17.8168,-16.6157 c 1.155,-1.0702 2.3677,-1.7863 3.6458,-2.1366 1.282,-0.358 2.5447,-0.4273 3.8151,-0.2117 1.2666,0.2194 2.4985,0.6698 3.6843,1.3859 1.1896,0.7083 2.2675,1.5784 3.2492,2.6294 0.9933,1.0664 1.794,2.2175 2.4023,3.4648 0.6198,1.2435 0.9817,2.5062 1.0933,3.8036 0.1155,1.282 -0.0577,2.5563 -0.512,3.8074 -0.4581,1.2551 -1.2666,2.4254 -2.41,3.4918 l -17.7244,16.5272 -0.847,-0.0732 -3.8382,-4.1154 -0.0154,-0.8508 9.5205,-8.8776 z m 2.5755,-13.1394 -3.3647,3.1376 5.3551,5.7439 3.3454,-3.1222 c 0.3388,-0.3118 0.5313,-0.6891 0.5814,-1.1126 0.0423,-0.4196 0.008,-0.8431 -0.1271,-1.2704 -0.1232,-0.4273 -0.3195,-0.8354 -0.5813,-1.2358 -0.2579,-0.3927 -0.5159,-0.7276 -0.7661,-0.9932 -0.2387,-0.258 -0.5428,-0.5121 -0.9278,-0.7546 -0.3888,-0.2541 -0.7854,-0.4543 -1.205,-0.6044 -0.4119,-0.1463 -0.8315,-0.2156 -1.2396,-0.2002 -0.4081,0.008 -0.7661,0.1501 -1.0703,0.4119 z m 18.3405,29.347 15.9766,-13.0162 5.4321,4.0924 -27.426,22.3326 -5.1779,-3.8998 13.9054,-32.5192 5.4359,4.0962 -8.1461,18.914 z m 29.7396,18.171 -7.0182,-3.5726 -5.9132,11.5994 -0.8008,0.2272 -5.4244,-2.7642 -0.2887,-0.7815 11.0605,-21.7051 c 0.716,-1.4052 1.6092,-2.4908 2.691,-3.2569 1.0818,-0.7777 2.2483,-1.2705 3.5148,-1.5053 1.2666,-0.2271 2.5756,-0.2233 3.9384,0.0423 1.359,0.2618 2.6717,0.7084 3.9499,1.359 1.2974,0.6622 2.4446,1.4706 3.4455,2.4331 1.0048,0.9586 1.7786,2.0211 2.3253,3.203 0.5467,1.1665 0.8239,2.4215 0.8239,3.7536 -0.004,1.332 -0.3619,2.7102 -1.0741,4.1077 l -11.0027,21.5896 -0.82,0.2195 -5.0125,-2.5563 -0.308,-0.7892 5.9133,-11.6033 z m -2.075,-13.224 -2.0905,4.1 6.999,3.5649 2.075,-4.0769 c 0.2118,-0.4119 0.2656,-0.8316 0.1656,-1.2435 -0.104,-0.4119 -0.2811,-0.7969 -0.5544,-1.1511 -0.2618,-0.3619 -0.5852,-0.6775 -0.9702,-0.9663 -0.3734,-0.281 -0.7314,-0.5043 -1.0587,-0.6737 -0.3118,-0.1578 -0.6852,-0.2926 -1.1279,-0.3888 -0.4543,-0.104 -0.8932,-0.1579 -1.3398,-0.154 -0.4389,0 -0.8546,0.0808 -1.2358,0.2348 -0.3772,0.1463 -0.666,0.4004 -0.8623,0.7546 z m 15.3568,20.3846 7.0798,2.052 c -0.1271,0.7083 -0.2117,1.3936 -0.2656,2.0635 -0.0424,0.6737 -0.004,1.2973 0.1193,1.8671 0.1232,0.5736 0.358,1.0741 0.7199,1.5053 0.3503,0.4235 0.8662,0.743 1.5361,0.9547 0.4851,0.154 0.9547,0.2002 1.409,0.1386 0.4389,-0.0616 0.8701,-0.2541 1.2666,-0.5774 0.435,-0.3658 0.8046,-0.8277 1.1087,-1.3937 0.2926,-0.5697 0.5197,-1.1164 0.6699,-1.6477 0.1963,-0.6737 0.154,-1.3397 -0.1348,-1.998 -0.0808,-0.2233 -0.2425,-0.4581 -0.4658,-0.693 -0.2271,-0.2425 -0.4812,-0.4812 -0.7468,-0.7045 -0.2695,-0.231 -0.5352,-0.4389 -0.8085,-0.6275 -0.2695,-0.1964 -0.5043,-0.3542 -0.693,-0.4851 -1.2126,-0.8084 -2.306,-1.5784 -3.2723,-2.3291 -0.9663,-0.743 -1.7632,-1.5707 -2.3715,-2.4754 -0.6159,-0.9047 -1.0125,-1.9288 -1.2049,-3.0645 -0.1848,-1.1434 -0.1117,-2.4946 0.2309,-4.0692 0.3658,-1.6439 0.9432,-2.9913 1.7363,-4.0615 0.7931,-1.0703 1.7478,-1.8787 2.8566,-2.4138 1.1164,-0.5467 2.3522,-0.8278 3.715,-0.8663 1.3705,-0.0307 2.8181,0.1733 4.3503,0.6122 1.5976,0.4581 2.9143,1.1087 3.9345,1.9518 1.0279,0.8393 1.8055,1.8402 2.3368,3.0029 0.5351,1.1626 0.8277,2.4754 0.8854,3.946 0.0539,1.4591 -0.077,3.0452 -0.4157,4.7352 l -6.5408,-1.8787 c 0.2887,-1.382 0.2502,-2.5485 -0.1155,-3.4956 -0.3658,-0.9509 -1.1203,-1.5938 -2.2676,-1.9403 -0.3772,-0.1078 -0.7507,-0.1848 -1.128,-0.2233 -0.3772,-0.0346 -0.7314,-0.0115 -1.0509,0.0809 -0.3196,0.0885 -0.6006,0.2541 -0.8586,0.4928 -0.2463,0.2386 -0.4427,0.5697 -0.5813,1.0086 -0.1232,0.3657 -0.1694,0.7276 -0.1347,1.0702 0.0308,0.3427 0.1694,0.6699 0.4273,0.9817 0.2772,0.3773 0.6198,0.6699 1.0202,0.9009 0.4081,0.2348 0.7854,0.4581 1.1472,0.6853 1.1819,0.7622 2.3099,1.613 3.4071,2.5485 1.0895,0.9317 2.0096,1.9596 2.7565,3.0914 0.7391,1.1203 1.255,2.3407 1.5283,3.6573 0.2772,1.3128 0.1964,2.7334 -0.2425,4.2617 -0.462,1.6015 -1.1126,3.0106 -1.9672,4.231 -0.847,1.2203 -1.8595,2.1982 -3.0221,2.9335 -1.1704,0.7392 -2.4754,1.205 -3.923,1.3936 -1.4398,0.1925 -2.9759,0.0578 -4.6082,-0.4119 -1.844,-0.5274 -3.3454,-1.2396 -4.5119,-2.1251 -1.1511,-0.8816 -2.0212,-1.9441 -2.5948,-3.1915 -0.5736,-1.2473 -0.8778,-2.6525 -0.9086,-4.2309 -0.023,-1.5746 0.1733,-3.3301 0.5929,-5.2627 z m 43.7991,-12.9853 c 1.3167,0.1617 2.5063,0.4966 3.5688,1.0048 1.0664,0.4966 1.9942,1.1395 2.7872,1.9133 0.7931,0.7738 1.4514,1.6708 1.975,2.6795 0.5236,1.0125 0.9008,2.1058 1.1434,3.28 0.1694,0.743 0.2079,1.5053 0.1155,2.2868 -0.1001,0.7853 -0.1964,1.5861 -0.2965,2.41 l -0.5004,0.4504 -5.9749,-0.7315 c -0.3041,-0.0385 -0.4889,-0.1732 -0.5736,-0.4042 -0.0847,-0.2348 -0.1194,-0.4735 -0.104,-0.7199 0.0193,-0.2464 0.0501,-0.4966 0.0886,-0.7507 0.0346,-0.2503 0.0654,-0.5005 0.0962,-0.7469 0.0539,-0.4235 -0.0385,-0.8123 -0.2772,-1.1626 -0.2348,-0.3542 -0.5351,-0.6506 -0.8931,-0.9163 -0.3696,-0.2541 -0.7661,-0.462 -1.1819,-0.6275 -0.4235,-0.1617 -0.7969,-0.2618 -1.1126,-0.3041 -0.462,-0.0539 -0.9163,-0.0424 -1.3513,0.05 -0.435,0.0809 -0.8354,0.2272 -1.2011,0.4312 -0.3657,0.2079 -0.6737,0.4658 -0.9317,0.7815 -0.2541,0.3118 -0.435,0.6737 -0.5351,1.0933 l -1.8017,12.5619 c -0.0731,0.4851 -0.0269,0.9548 0.1386,1.4321 0.1732,0.4774 0.4158,0.9086 0.7276,1.3051 0.3041,0.3889 0.6737,0.7238 1.0895,0.9894 0.4119,0.2695 0.8354,0.4351 1.2743,0.4889 0.5043,0.0616 1.0125,0.0347 1.5207,-0.0769 0.5043,-0.1194 0.9624,-0.3042 1.3782,-0.5698 0.4158,-0.2618 0.7738,-0.5967 1.0741,-0.9971 0.2964,-0.3888 0.4927,-0.8431 0.589,-1.3513 l 0.008,-0.0808 c 0.0539,-0.4505 0.1809,-0.7969 0.3696,-1.0356 0.1925,-0.2387 0.5004,-0.3542 0.9201,-0.335 l 0.0192,0.004 5.563,0.6814 0.0616,0.0308 c 0.2964,0.127 0.4889,0.3272 0.5928,0.5929 0.0924,0.2695 0.1232,0.5505 0.0886,0.8392 -0.181,1.4745 -0.539,2.8142 -1.078,4.0192 -0.5312,1.2088 -1.3127,2.2329 -2.3329,3.076 -1.0202,0.8354 -2.3176,1.4668 -3.8845,1.8902 -1.5668,0.4274 -3.4609,0.616 -5.69,0.5583 l -0.0462,-0.004 c -1.3628,-0.1694 -2.6371,-0.5659 -3.8421,-1.1857 -1.2011,-0.6314 -2.2559,-1.4206 -3.1452,-2.383 -0.9009,-0.9702 -1.6054,-2.0712 -2.1251,-3.3147 -0.5121,-1.2474 -0.77,-2.5871 -0.77,-4.0077 l 2.3638,-15.1489 c 0.0731,-0.3426 0.1463,-0.6853 0.2271,-1.0356 0.077,-0.358 0.1733,-0.6891 0.2888,-1.0125 0.3464,-1.0356 0.9316,-1.9518 1.7593,-2.7526 0.8277,-0.8046 1.7825,-1.4629 2.8566,-1.9865 1.0779,-0.5236 2.229,-0.8893 3.4455,-1.0972 1.2166,-0.2117 2.3869,-0.2502 3.5187,-0.1116 z m 24.0651,21.9092 1.1472,13.1047 -7.3454,0.6429 -2.9913,-34.2093 10.2713,-0.897 c 1.8287,-0.1617 3.4841,-0.1078 4.947,0.1617 1.4629,0.2656 2.7295,0.7777 3.7959,1.5515 1.0625,0.7584 1.9095,1.7863 2.5524,3.0875 0.6391,1.3012 1.0433,2.8912 1.2088,4.7814 0.0809,0.9317 0.027,1.9249 -0.1617,2.9952 -0.1963,1.0625 -0.512,2.0866 -0.9432,3.0798 -0.4388,0.9894 -0.9855,1.9057 -1.6477,2.7449 -0.6698,0.847 -1.4282,1.5053 -2.2752,1.9942 l 7.3762,12.7736 -7.5456,0.6622 -7.7342,-12.5311 -0.6545,0.0578 z m -1.128,-14.2212 0.7007,8.023 1.8748,-0.1655 c 0.8701,-0.0924 1.6439,-0.2349 2.3099,-0.4197 0.6737,-0.1925 1.2358,-0.4696 1.6747,-0.82 0.4504,-0.358 0.7776,-0.8123 0.9817,-1.3782 0.204,-0.5736 0.2733,-1.2666 0.2002,-2.0904 -0.0693,-0.7777 -0.2926,-1.386 -0.6815,-1.8479 -0.3811,-0.4543 -0.8546,-0.8008 -1.4128,-1.0395 -0.5621,-0.2348 -1.1742,-0.3773 -1.8325,-0.4312 -0.6584,-0.0539 -1.2974,-0.05 -1.9211,0.004 l -1.8941,0.1655 z m 20.9968,-8.9892 7.6264,-1.4822 6.5524,33.7088 -7.6264,1.4821 -6.5524,-33.7087 z m 27.5915,15.2875 4.4041,11.4647 -0.3618,0.7699 -6.1482,2.36 -0.7661,-0.3388 -11.892,-30.9755 0.3503,-0.7468 9.3358,-3.5842 c 1.3744,-0.5236 2.7873,-0.7699 4.2232,-0.7276 1.436,0.0462 2.7988,0.3234 4.077,0.8431 1.2704,0.5159 2.4099,1.2473 3.407,2.2059 0.9971,0.9509 1.7517,2.0789 2.256,3.3879 l 0.3734,0.974 c 0.566,1.4744 0.7546,2.9219 0.5506,4.3425 -0.1964,1.4206 -0.6699,2.7295 -1.4052,3.9422 -0.7392,1.2011 -1.6939,2.2752 -2.8566,3.2146 -1.1665,0.9393 -2.4292,1.6708 -3.7882,2.1944 l -1.7593,0.6737 z m -5.1279,-12.8275 2.5023,6.5215 2.5293,-0.974 c 1.128,-0.4312 1.9326,-1.0394 2.3985,-1.8209 0.4619,-0.7777 0.4581,-1.7863 -0.0116,-3.0029 -0.2117,-0.5543 -0.4966,-0.9817 -0.8508,-1.2819 -0.3657,-0.308 -0.7623,-0.5236 -1.1973,-0.643 -0.4389,-0.1232 -0.9008,-0.154 -1.4013,-0.1001 -0.4889,0.0539 -0.9702,0.1771 -1.4321,0.3504 l -2.537,0.9509 z m 30.679,-14.4753 14.0787,23.4299 -5.9865,3.5957 -14.0748,-23.426 -6.3984,3.8421 -3.6111,-6.0057 18.7793,-11.2837 3.6111,6.0057 -6.3983,3.842 z M 174.6666,252.08 l 2.2637,-4.2579 -11.6533,-6.1943 -0.2156,-0.8085 3.5148,-6.6101 1.1126,0.3773 28.7773,15.2991 0.2425,0.7969 -3.3262,6.2598 -0.8085,0.2617 -11.4031,-6.0634 -2.2637,4.254 11.407,6.0673 0.2425,0.7931 -3.3378,6.279 -0.8007,0.2464 -29.297,-15.5763 -0.2232,-0.7892 3.3377,-6.279 0.7777,-0.2541 11.6533,6.1982 z m 223.0803,-90.1006 c 0.281,-0.7007 0.6198,-1.4013 1.0086,-2.0981 0.3888,-0.6969 0.8239,-1.3629 1.3012,-1.9827 0.4736,-0.6313 1.0125,-1.2011 1.6092,-1.7208 0.5852,-0.5121 1.2243,-0.9586 1.9095,-1.3244 1.4283,-0.7199 2.8874,-1.0433 4.3773,-0.9778 1.4937,0.077 2.9605,0.4196 4.4157,1.0317 0.8508,0.3465 1.6669,0.77 2.4561,1.2666 0.7893,0.4928 1.5015,1.0626 2.1444,1.7055 0.6352,0.6467 1.1896,1.3551 1.6477,2.152 0.4697,0.7892 0.8008,1.6477 1.0086,2.5871 0.2387,1.0818 0.2734,2.1559 0.1155,3.2184 -0.1501,1.0625 -0.4504,2.0981 -0.8931,3.0952 l -9.5899,21.5358 -0.87,0.2348 -5.4321,-2.4215 -0.3927,-0.7931 9.0548,-20.3384 c 0.1848,-0.4158 0.3041,-0.8662 0.358,-1.3706 0.0616,-0.5043 0.0346,-0.9971 -0.0654,-1.4667 -0.0963,-0.4774 -0.2811,-0.9086 -0.5583,-1.3013 -0.2733,-0.3926 -0.6313,-0.6891 -1.0895,-0.8931 -0.4504,-0.2002 -0.9162,-0.3195 -1.3936,-0.3426 -0.4658,-0.0308 -0.9239,0.0192 -1.359,0.1463 -0.4311,0.127 -0.8238,0.3426 -1.1742,0.6544 -0.3541,0.3003 -0.6313,0.6891 -0.8392,1.1511 l -9.2511,20.7773 -0.8893,0.3927 -5.921,-2.6332 -0.3618,-0.8085 8.6736,-19.4761 z m 43.8799,9.5629 c 1.0741,0.7545 2.025,1.7093 2.8181,2.8604 0.8084,1.1511 1.3974,2.3792 1.767,3.7073 0.3696,1.3167 0.4735,2.6641 0.3234,4.0423 -0.1578,1.3821 -0.6583,2.6718 -1.5014,3.8768 l -8.4388,12.0498 c -0.5697,0.8123 -1.2242,1.4745 -1.9672,2.0019 -0.7392,0.5236 -1.5322,0.924 -2.383,1.205 -0.8547,0.2656 -1.7363,0.435 -2.6371,0.4851 -0.9124,0.0462 -1.8133,0 -2.7141,-0.1656 -0.897,-0.1501 -1.7633,-0.3927 -2.6102,-0.7237 -0.847,-0.3388 -1.6208,-0.743 -2.3407,-1.2281 -0.7584,-0.4928 -1.4398,-1.0818 -2.0519,-1.7748 -0.6198,-0.6891 -1.1434,-1.4359 -1.5746,-2.2521 -0.4466,-0.8123 -0.7853,-1.6631 -1.0356,-2.5486 -0.2502,-0.8893 -0.3888,-1.7863 -0.4081,-2.691 -0.0115,-0.9047 0.0963,-1.7824 0.335,-2.6486 0.2464,-0.8701 0.6275,-1.6785 1.1549,-2.4293 l 8.4349,-12.0498 c 0.5351,-0.7623 1.1742,-1.4013 1.9172,-1.9288 0.743,-0.5235 1.5284,-0.9355 2.3869,-1.2357 0.8585,-0.308 1.7439,-0.4967 2.6717,-0.5737 0.9278,-0.0846 1.8595,-0.0616 2.7796,0.0732 0.9278,0.1309 1.8132,0.3619 2.6833,0.6853 0.87,0.3349 1.6631,0.7507 2.3907,1.2627 z m -15.9458,14.9179 c -0.4659,0.6661 -0.8316,1.3205 -1.1011,1.9519 -0.2579,0.6313 -0.3965,1.2589 -0.3927,1.8633 0.004,0.6044 0.1617,1.1857 0.4774,1.7401 0.3157,0.5467 0.8277,1.0664 1.5399,1.5669 0.5891,0.408 1.2012,0.6236 1.8518,0.6313 0.6506,0.008 1.2897,-0.1039 1.8979,-0.3388 0.6122,-0.2463 1.1819,-0.5774 1.7132,-1.0009 0.5274,-0.4235 0.9547,-0.8624 1.2781,-1.3282 l 5.3859,-7.6919 c 0.3041,-0.435 0.4966,-0.947 0.5929,-1.5399 0.0962,-0.5929 0.1001,-1.1819 0.004,-1.7747 -0.0962,-0.5929 -0.2733,-1.1473 -0.5467,-1.6709 -0.2617,-0.5235 -0.6044,-0.9355 -1.0163,-1.2242 -0.589,-0.4158 -1.1742,-0.6891 -1.7517,-0.82 -0.589,-0.1309 -1.1549,-0.1386 -1.6977,-0.0385 -0.5505,0.104 -1.0703,0.3311 -1.5515,0.6622 -0.4851,0.3465 -0.9201,0.7815 -1.2974,1.3204 l -5.3858,7.6919 z m 43.1947,17.2163 c -0.1117,0.3388 -0.2849,0.6891 -0.5198,1.0703 -0.2348,0.3849 -0.4966,0.7507 -0.7776,1.1202 -0.281,0.3658 -0.5659,0.7123 -0.8662,1.0472 -0.2926,0.3272 -0.5698,0.6237 -0.8085,0.8777 l -7.8228,8.3887 c -1.0009,1.0741 -2.0981,1.9095 -3.2877,2.4986 -1.1857,0.589 -2.41,0.9316 -3.6611,1.024 -1.2589,0.0963 -2.5178,-0.0577 -3.7805,-0.4697 -1.2628,-0.408 -2.4716,-1.0702 -3.6419,-1.9788 -0.4928,-0.3695 -0.9625,-0.7622 -1.4129,-1.1511 -0.4543,-0.3926 -0.9086,-0.7853 -1.3667,-1.1703 l -5.8825,-5.3974 -0.0808,-0.847 22.6637,-24.2999 0.8354,0.0347 7.4263,6.9219 c 1.8556,1.7324 3.0452,3.6188 3.5649,5.6708 0.5351,2.0481 0.3349,4.2617 -0.5813,6.6601 z m -10.2366,-8.8853 -13.4474,14.4213 2.4793,2.3137 c 0.2271,0.2079 0.5467,0.3581 0.9509,0.4389 0.4119,0.0886 0.8431,0.1309 1.2858,0.1232 0.4466,-0.004 0.8547,-0.0616 1.2358,-0.154 0.3773,-0.1001 0.6391,-0.2233 0.7892,-0.3888 l 9.7015,-10.3983 c 0.2194,-0.2387 0.3619,-0.5428 0.4235,-0.9163 0.0539,-0.3734 0.0539,-0.7545 -0.0193,-1.151 -0.0731,-0.3927 -0.1848,-0.7738 -0.3503,-1.128 -0.1463,-0.3542 -0.3426,-0.6352 -0.5659,-0.847 l -2.4831,-2.3137 z m 20.812,22.7561 -4.9586,3.6034 3.8036,5.2396 -5.4513,3.9614 -3.8036,-5.2395 -5.7362,4.1693 6.1866,8.5157 -5.8247,4.231 -10.2405,-14.0941 27.7802,-20.1845 10.2404,14.0941 -5.8093,4.2194 -6.1866,-8.5158 z m -10.9181,25.8052 c 0.4043,-0.2464 0.8316,-0.4004 1.309,-0.4658 0.4619,-0.0693 0.9162,-0.0539 1.3474,0.0539 0.4273,0.1039 0.82,0.2964 1.1934,0.562 0.3619,0.2734 0.6699,0.6083 0.9163,1.0164 0.4889,0.8161 0.616,1.6977 0.385,2.6486 -0.231,0.9471 -0.7507,1.6593 -1.5669,2.1482 -0.8239,0.4966 -1.6978,0.6237 -2.6333,0.3734 -0.9355,-0.2502 -1.6438,-0.7776 -2.1366,-1.5938 -0.4928,-0.8238 -0.6237,-1.6939 -0.3965,-2.6178 0.231,-0.924 0.7545,-1.6323 1.5822,-2.1251 z m 39.5952,9.1548 3.4686,7.4416 -16.5772,7.7304 c -1.2897,0.6006 -2.6255,1.1742 -4.0192,1.7247 -1.3897,0.5544 -2.7834,0.9432 -4.1731,1.1781 -1.1357,0.1771 -2.2599,0.1578 -3.3609,-0.0655 -1.101,-0.2194 -2.1328,-0.5928 -3.0914,-1.1203 -0.9624,-0.5235 -1.8248,-1.1857 -2.5948,-1.9865 -0.7699,-0.8046 -1.382,-1.6977 -1.8479,-2.691 -0.7699,-1.6515 -1.1703,-3.2376 -1.2049,-4.7622 -0.0347,-1.5206 0.2579,-2.9412 0.8777,-4.2501 0.6237,-1.3128 1.5399,-2.4908 2.7565,-3.5457 1.2203,-1.0433 2.6833,-1.9287 4.4157,-2.6371 l 3.3108,7.1029 -0.4928,0.231 c -0.3926,0.1848 -0.82,0.4311 -1.2666,0.7507 -0.4465,0.3118 -0.8392,0.6698 -1.1664,1.0702 -0.3273,0.4081 -0.5621,0.847 -0.693,1.3205 -0.1386,0.4658 -0.0847,0.9509 0.154,1.4591 0.1886,0.4042 0.4466,0.7083 0.7622,0.897 0.3234,0.1848 0.6853,0.3003 1.0741,0.3272 0.3966,0.0346 0.8085,0.008 1.2435,-0.0808 0.4351,-0.0886 0.8585,-0.2041 1.2743,-0.3388 0.4235,-0.1386 0.82,-0.2926 1.1896,-0.4582 0.3734,-0.1655 0.693,-0.3156 0.9547,-0.435 l 19.0065,-8.8622 z m -14.4445,22.7099 1.7633,7.1568 c -0.6776,0.2464 -1.3128,0.512 -1.9211,0.8008 -0.6044,0.2964 -1.1241,0.6467 -1.5592,1.0355 -0.4311,0.3927 -0.7468,0.8509 -0.9393,1.3783 -0.1963,0.5158 -0.2156,1.1203 -0.0578,1.8055 0.1078,0.4966 0.3003,0.9278 0.5814,1.2897 0.2733,0.3503 0.6544,0.6237 1.1357,0.8085 0.5312,0.1963 1.1164,0.2848 1.7593,0.2617 0.6391,-0.0269 1.2242,-0.1077 1.7632,-0.2425 0.6814,-0.1694 1.2358,-0.5351 1.6631,-1.1164 0.154,-0.181 0.2734,-0.4351 0.3658,-0.7469 0.0962,-0.3195 0.177,-0.6583 0.2386,-1.0009 0.0616,-0.3504 0.1117,-0.6814 0.1386,-1.0164 0.0308,-0.3272 0.0539,-0.6121 0.0732,-0.8392 0.0924,-1.4553 0.2117,-2.7873 0.3811,-4 0.1579,-1.2088 0.4774,-2.3098 0.9586,-3.2915 0.4774,-0.9856 1.1626,-1.8402 2.052,-2.5756 0.897,-0.7314 2.1058,-1.3435 3.638,-1.8325 1.6054,-0.5081 3.0644,-0.6814 4.3849,-0.5312 1.3244,0.154 2.5024,0.5774 3.5187,1.2704 1.0318,0.693 1.8941,1.6246 2.6063,2.7834 0.7123,1.1703 1.2628,2.5255 1.6478,4.0731 0.4003,1.613 0.4966,3.076 0.2771,4.3849 -0.2155,1.3089 -0.6929,2.4831 -1.4321,3.5226 -0.7391,1.0471 -1.7324,1.9557 -2.9759,2.7449 -1.2396,0.7738 -2.6756,1.4513 -4.3079,2.0057 l -1.6477,-6.6062 c 1.3436,-0.4389 2.3368,-1.0587 2.972,-1.8479 0.6391,-0.7892 0.82,-1.7671 0.5467,-2.9336 -0.0962,-0.3811 -0.2156,-0.743 -0.3696,-1.0895 -0.1578,-0.3465 -0.3542,-0.6352 -0.5967,-0.87 -0.2348,-0.231 -0.5197,-0.3889 -0.8546,-0.4928 -0.3311,-0.0962 -0.7161,-0.1001 -1.1627,-0.004 -0.3773,0.077 -0.716,0.2195 -0.9971,0.4197 -0.2772,0.2002 -0.4928,0.4851 -0.6352,0.8623 -0.1886,0.4274 -0.2733,0.8701 -0.2733,1.3359 0.004,0.4658 -0.004,0.9086 -0.0193,1.332 -0.0654,1.4052 -0.2387,2.8104 -0.5005,4.2233 -0.2656,1.4128 -0.6929,2.7218 -1.2973,3.9345 -0.6006,1.2011 -1.4014,2.2598 -2.4062,3.1568 -0.9971,0.8931 -2.2713,1.5322 -3.8113,1.9172 -1.6207,0.4042 -3.1645,0.5428 -4.6467,0.4119 -1.4783,-0.1232 -2.8334,-0.512 -4.0538,-1.1511 -1.2242,-0.6429 -2.2791,-1.5399 -3.1684,-2.6987 -0.8854,-1.1511 -1.536,-2.5486 -1.948,-4.1963 -0.4619,-1.8633 -0.6005,-3.5187 -0.4119,-4.97 0.1848,-1.4399 0.6737,-2.7218 1.4629,-3.846 0.7931,-1.1164 1.8595,-2.0827 3.2108,-2.8989 1.3551,-0.8084 2.972,-1.5168 4.8545,-2.1174 z m -306.6554,-56.7575 22.1132,16.0652 -4.1038,5.6515 -22.1133,-16.0652 -4.3887,6.0365 -5.6708,-4.1154 12.8814,-17.7245 5.6669,4.1154 -4.3849,6.0365 z m 20.9044,-28.858 c 0.0347,-1.6285 0.4042,-3.0722 1.1049,-4.3349 0.693,-1.2627 1.6439,-2.3407 2.8411,-3.2338 0.693,-0.5236 1.4437,-0.9663 2.2483,-1.3167 0.8046,-0.358 1.6323,-0.6159 2.4793,-0.793 0.8431,-0.1656 1.7093,-0.2464 2.5832,-0.231 0.8701,0.0115 1.7132,0.127 2.5332,0.3388 0.82,0.2233 1.6053,0.5351 2.3522,0.9663 0.7469,0.4273 1.4206,0.9624 2.0134,1.6015 l 16.0806,17.2432 -0.1578,0.8624 -4.3464,4.0538 -0.8585,0.0809 -15.1798,-16.277 c -0.3041,-0.3272 -0.6814,-0.6236 -1.1203,-0.8662 -0.4427,-0.2541 -0.9008,-0.4196 -1.3782,-0.5005 -0.4697,-0.0808 -0.9509,-0.0769 -1.4167,0.0231 -0.4697,0.1001 -0.8893,0.3157 -1.2666,0.6661 -0.358,0.3387 -0.6506,0.7199 -0.8701,1.1395 -0.2117,0.4235 -0.3349,0.8547 -0.3772,1.3051 -0.0424,0.4466 0.004,0.8931 0.1424,1.3243 0.1386,0.4466 0.385,0.8508 0.7315,1.2204 l 15.5031,16.6273 0,0.9316 -4.7353,4.4196 -0.8546,0.0808 -15.6841,-16.8197 c -0.3041,-0.3234 -0.6621,-0.5583 -1.0856,-0.7161 -0.4235,-0.1578 -0.8547,-0.2233 -1.2935,-0.2156 -0.4351,0.0116 -0.8624,0.0886 -1.2743,0.231 -0.412,0.1501 -0.77,0.358 -1.0664,0.6391 -0.3157,0.2887 -0.5505,0.6429 -0.7045,1.0664 -0.1579,0.408 -0.2426,0.8354 -0.2464,1.2665 -0.004,0.4351 0.0654,0.8585 0.2233,1.2743 0.1578,0.4158 0.3926,0.7584 0.7006,1.0202 l 0.0154,0.0193 15.6148,16.7427 -0.1886,0.8585 -4.4966,4.1963 -0.8393,0.0654 -16.1768,-17.351 c -0.7969,-0.8508 -1.3936,-1.8094 -1.794,-2.8642 -0.3965,-1.0587 -0.6121,-2.1482 -0.6391,-3.2608 -0.0385,-1.1126 0.0886,-2.2252 0.3773,-3.3301 0.2887,-1.1049 0.7161,-2.1366 1.282,-3.0837 1.0125,-1.6939 2.3176,-2.9874 3.9152,-3.8574 1.5977,-0.8739 3.3686,-1.2782 5.3089,-1.2127 z m 41.7703,-1.0433 10.7255,-6.1905 3.5418,6.1366 -17.0738,9.8593 -17.1701,-29.7397 6.3483,-3.665 13.6283,23.5993 z m 41.9704,-46.2899 c 1.2897,-0.3003 2.5255,-0.3889 3.692,-0.2772 1.1742,0.1039 2.2675,0.3888 3.28,0.8431 1.0087,0.4581 1.9326,1.0741 2.7719,1.844 0.8354,0.7738 1.5668,1.6708 2.1944,2.691 0.4119,0.6391 0.7122,1.3436 0.8893,2.1097 0.1771,0.7738 0.358,1.5592 0.5466,2.3676 l -0.3156,0.5929 -5.8671,1.3551 c -0.2965,0.0693 -0.5198,0.008 -0.6776,-0.1809 -0.1578,-0.1925 -0.2695,-0.4042 -0.3388,-0.6429 -0.0693,-0.2349 -0.127,-0.4851 -0.1732,-0.7315 -0.0539,-0.2502 -0.1117,-0.4966 -0.1694,-0.7391 -0.0963,-0.4158 -0.3118,-0.7469 -0.6545,-0.9971 -0.3426,-0.2541 -0.7276,-0.4274 -1.1549,-0.5544 -0.435,-0.1155 -0.8778,-0.1732 -1.3243,-0.1848 -0.4582,-0.008 -0.8393,0.0231 -1.1511,0.0962 -0.4505,0.104 -0.8739,0.2734 -1.2512,0.5044 -0.3811,0.2271 -0.7084,0.5004 -0.9817,0.8161 -0.2734,0.3234 -0.4735,0.6699 -0.6083,1.0549 -0.1347,0.3811 -0.1809,0.7815 -0.127,1.2088 l 2.6024,12.4233 c 0.0924,0.4774 0.3003,0.9047 0.6199,1.2974 0.3272,0.3888 0.7006,0.7122 1.1279,0.9778 0.4235,0.2618 0.8778,0.4466 1.3629,0.5582 0.4812,0.1117 0.9316,0.1194 1.3628,0.0193 0.4966,-0.1117 0.9663,-0.3118 1.4052,-0.5929 0.435,-0.281 0.8007,-0.6082 1.101,-1.0048 0.3003,-0.3888 0.5236,-0.8238 0.666,-1.3012 0.1463,-0.4697 0.1771,-0.9625 0.0924,-1.4706 l -0.0192,-0.0809 c -0.104,-0.4427 -0.104,-0.8084 -0.008,-1.101 0.0962,-0.2887 0.3465,-0.5005 0.7507,-0.6275 l 0.0192,-0.004 5.459,-1.2589 0.0693,0.008 c 0.3196,0.0154 0.5698,0.1348 0.7584,0.3542 0.181,0.2195 0.308,0.4735 0.3735,0.7546 0.3349,1.4475 0.4543,2.8296 0.3619,4.1501 -0.0886,1.3127 -0.4736,2.5447 -1.1434,3.6842 -0.6737,1.1357 -1.6747,2.1713 -3.0029,3.1068 -1.3243,0.9355 -3.0413,1.7593 -5.1548,2.4716 l -0.0462,0.008 c -1.3398,0.3118 -2.6718,0.3734 -4.0154,0.2001 -1.3474,-0.1809 -2.6063,-0.562 -3.7728,-1.1626 -1.1742,-0.6006 -2.2136,-1.3975 -3.126,-2.3869 -0.9086,-0.9971 -1.6131,-2.1674 -2.0982,-3.5033 l -2.9604,-15.0411 c -0.0462,-0.3503 -0.0963,-0.6968 -0.1386,-1.0549 -0.0462,-0.3618 -0.0732,-0.7083 -0.077,-1.051 -0.027,-1.0894 0.2117,-2.1481 0.716,-3.1876 0.5005,-1.0394 1.1704,-1.9826 2.0019,-2.8411 0.8354,-0.8624 1.7902,-1.5977 2.8643,-2.2137 1.0702,-0.6121 2.1559,-1.0471 3.2684,-1.305 z m 23.0141,17.7321 7.3724,-0.1039 c 0.0847,0.716 0.2002,1.3936 0.3465,2.0519 0.154,0.6545 0.3734,1.2396 0.6583,1.7517 0.2849,0.5081 0.6583,0.9201 1.128,1.228 0.4619,0.3042 1.0471,0.4582 1.7516,0.462 0.5082,0.004 0.9663,-0.0885 1.3821,-0.281 0.4081,-0.1848 0.7584,-0.4966 1.0433,-0.9201 0.3118,-0.4774 0.5313,-1.0279 0.6545,-1.6554 0.1155,-0.6314 0.1694,-1.2204 0.1617,-1.7748 -0.0116,-0.7006 -0.2464,-1.3243 -0.7161,-1.871 -0.1425,-0.1886 -0.3619,-0.3657 -0.6468,-0.5236 -0.2887,-0.1693 -0.6005,-0.3195 -0.9201,-0.4581 -0.3272,-0.1386 -0.6429,-0.2618 -0.9586,-0.3657 -0.3157,-0.104 -0.5851,-0.1887 -0.8007,-0.2579 -1.3975,-0.4197 -2.6679,-0.8355 -3.8113,-1.2743 -1.1434,-0.4274 -2.1482,-0.9817 -2.9952,-1.6708 -0.8508,-0.6853 -1.5283,-1.5477 -2.0481,-2.5794 -0.5081,-1.0394 -0.8315,-2.3522 -0.9663,-3.9576 -0.1309,-1.6785 0.027,-3.1376 0.4736,-4.3926 0.4465,-1.255 1.1203,-2.306 2.025,-3.1453 0.9085,-0.8469 2.0095,-1.4783 3.2992,-1.9133 1.3013,-0.4274 2.7449,-0.6583 4.3387,-0.6853 1.6632,-0.0308 3.1107,0.2079 4.3349,0.7161 1.2281,0.5043 2.2637,1.2319 3.1107,2.1866 0.8546,0.9548 1.5168,2.1251 2.0018,3.5149 0.4813,1.3821 0.8162,2.9374 0.9856,4.6506 l -6.8026,0.1193 c -0.1309,-1.409 -0.5082,-2.5139 -1.1318,-3.3108 -0.6275,-0.8008 -1.54,-1.1973 -2.7372,-1.1935 -0.3927,0.008 -0.7738,0.0462 -1.1434,0.1155 -0.3735,0.077 -0.7007,0.2041 -0.9856,0.385 -0.2772,0.1771 -0.4966,0.4196 -0.6698,0.7238 -0.1694,0.3003 -0.258,0.6737 -0.2657,1.1318 -0.0115,0.385 0.0501,0.7469 0.1848,1.0626 0.1309,0.3195 0.358,0.5928 0.6968,0.8161 0.3773,0.2772 0.7854,0.462 1.2397,0.5659 0.4542,0.104 0.8854,0.2079 1.2935,0.3196 1.3551,0.3811 2.6833,0.8662 4.0038,1.4398 1.3166,0.5736 2.4946,1.282 3.5418,2.1482 1.0356,0.8546 1.8825,1.871 2.5332,3.049 0.6467,1.1742 0.9855,2.5601 1.0125,4.1501 0.0269,1.667 -0.1848,3.203 -0.643,4.6197 -0.4542,1.4129 -1.1357,2.6449 -2.0365,3.6881 -0.9009,1.0472 -2.0134,1.8787 -3.3416,2.4832 -1.3205,0.6044 -2.8296,0.9201 -4.5235,0.9509 -1.9211,0.0346 -3.5688,-0.2079 -4.9393,-0.7122 -1.359,-0.5044 -2.5024,-1.2705 -3.4148,-2.2945 -0.9124,-1.0241 -1.6169,-2.2791 -2.1058,-3.7805 -0.4813,-1.5014 -0.8085,-3.2338 -0.9702,-5.2088 z m 27.8956,-0.2695 7.3146,0.924 c -0.0153,0.7199 0.004,1.409 0.0578,2.0789 0.0616,0.6698 0.2002,1.2781 0.4081,1.8248 0.2117,0.5466 0.5235,1.0048 0.947,1.3743 0.4158,0.3658 0.9702,0.6006 1.667,0.7007 0.5043,0.077 0.974,0.05 1.4129,-0.0847 0.4273,-0.127 0.82,-0.385 1.1587,-0.7661 0.3773,-0.4273 0.6661,-0.9432 0.8778,-1.5515 0.204,-0.6044 0.3388,-1.1819 0.4081,-1.7324 0.0847,-0.6968 -0.0616,-1.3474 -0.4466,-1.9518 -0.1155,-0.2079 -0.3118,-0.4158 -0.5698,-0.6083 -0.2618,-0.2079 -0.5505,-0.4004 -0.8469,-0.5813 -0.3042,-0.1848 -0.6006,-0.3503 -0.9009,-0.4928 -0.2926,-0.1501 -0.5505,-0.2695 -0.7545,-0.3696 -1.3282,-0.6082 -2.5255,-1.1972 -3.5996,-1.794 -1.0702,-0.5813 -1.9865,-1.2704 -2.7295,-2.0712 -0.7469,-0.7969 -1.3012,-1.7439 -1.6708,-2.8373 -0.3619,-1.101 -0.4966,-2.4484 -0.4042,-4.0538 0.1001,-1.6823 0.4619,-3.1029 1.0779,-4.2848 0.616,-1.1819 1.4321,-2.1289 2.4446,-2.8296 1.0125,-0.7161 2.1944,-1.1857 3.5303,-1.436 1.3513,-0.2464 2.8103,-0.2733 4.3926,-0.077 1.6516,0.2002 3.0529,0.6352 4.1963,1.3128 1.1434,0.666 2.0673,1.5322 2.7757,2.5986 0.7122,1.0626 1.205,2.3137 1.4937,3.7574 0.281,1.436 0.3965,3.0221 0.3272,4.743 l -6.7564,-0.8277 c 0.0693,-1.4129 -0.1501,-2.5602 -0.6583,-3.4379 -0.5081,-0.8816 -1.3551,-1.4013 -2.5447,-1.563 -0.3888,-0.0462 -0.7699,-0.0616 -1.1472,-0.0424 -0.3812,0.0231 -0.7238,0.1001 -1.0279,0.2426 -0.3003,0.1386 -0.5505,0.3464 -0.7661,0.6236 -0.2079,0.2734 -0.3504,0.6314 -0.4197,1.0857 -0.0654,0.3773 -0.0539,0.743 0.0308,1.0779 0.0886,0.3311 0.2772,0.6352 0.5814,0.9047 0.331,0.3272 0.7122,0.5659 1.1472,0.7315 0.4389,0.1655 0.847,0.3272 1.2396,0.4966 1.2859,0.5659 2.5371,1.2319 3.7613,1.9826 1.2242,0.7508 2.2906,1.617 3.2107,2.6179 0.9047,0.9932 1.6054,2.1174 2.0828,3.3763 0.4773,1.255 0.6159,2.6717 0.4234,4.2501 -0.204,1.6516 -0.6275,3.1453 -1.2781,4.4851 -0.6468,1.3358 -1.4937,2.46 -2.5293,3.3685 -1.0395,0.9124 -2.256,1.5784 -3.6535,1.9904 -1.3936,0.4157 -2.9297,0.5235 -4.6159,0.3156 -1.9056,-0.2348 -3.5033,-0.7006 -4.7891,-1.3936 -1.2782,-0.6891 -2.3022,-1.6053 -3.0645,-2.7487 -0.7584,-1.1396 -1.2819,-2.4793 -1.5553,-4.0346 -0.2733,-1.5515 -0.3542,-3.3147 -0.2387,-5.2935 z" />
  <path
     id="path8"
     style="fill:#e30079;fill-rule:evenodd"
     d="m 31.5462,23.7943 1.709,0 c 0.5443,-0.0057 1.0069,0.0592 1.393,0.1919 0.3863,0.1295 0.6797,0.358 0.8855,0.6823 0.2061,0.3243 0.3076,0.7727 0.3104,1.3425 0,0.5159 -0.0678,0.9334 -0.2032,1.2492 -0.1353,0.3158 -0.33,0.5528 -0.5865,0.7163 -0.2594,0.1608 -0.5698,0.2707 -0.9363,0.3272 -0.3694,0.0535 -0.7866,0.0788 -1.2521,0.0759 l -1.3198,0 0,-4.5853 z m 0,5.8037 1.7768,0 c 0.5527,0.0028 1.0658,-0.0508 1.5423,-0.1608 0.4739,-0.11 0.8884,-0.2987 1.2467,-0.5666 0.3551,-0.2682 0.6344,-0.6347 0.8319,-1.0999 0.2002,-0.4654 0.3016,-1.0519 0.3045,-1.7597 -0.0029,-0.7982 -0.1579,-1.4525 -0.4598,-1.9599 -0.3016,-0.5048 -0.7274,-0.8799 -1.2745,-1.1197 -0.547,-0.2398 -1.1931,-0.358 -1.9374,-0.3554 l -3.384,0 0,12.1827 1.3535,0 0,-5.1607 z m 9.1032,-3.8747 -1.2861,0 0,9.0354 1.2861,0 0,-5.4822 c 0,-0.4878 0.0845,-0.9136 0.2452,-1.2776 0.1635,-0.3665 0.4005,-0.6485 0.7106,-0.8515 0.3076,-0.203 0.6854,-0.3044 1.1254,-0.3073 0.0845,0 0.172,0.0029 0.265,0.0111 0.0902,0.0085 0.1834,0.0227 0.2764,0.0397 l 0,-1.2521 c -0.0677,-0.0085 -0.127,-0.017 -0.1834,-0.0227 -0.0564,-0.0085 -0.1128,-0.0113 -0.1721,-0.0113 -0.375,0 -0.7021,0.0592 -0.9813,0.1749 -0.2789,0.1185 -0.5216,0.2934 -0.7274,0.5301 -0.2061,0.2341 -0.3864,0.5303 -0.5414,0.8855 l -0.017,0 0,-1.472 z m 5.2792,0 -1.286,0 0,9.0354 1.286,0 0,-9.0354 z m 0,-1.5228 0,-1.6245 -1.286,0 0,1.6245 1.286,0 z m 3.6547,1.5228 -1.286,0 0,9.0354 1.286,0 0,-6.2436 c 0.0029,-0.3665 0.0788,-0.6936 0.2342,-0.987 0.1522,-0.2906 0.3665,-0.5244 0.6429,-0.6965 0.2764,-0.172 0.5978,-0.2593 0.9672,-0.2622 0.3469,0.0029 0.6205,0.0675 0.8178,0.2001 0.1975,0.1324 0.3384,0.3158 0.4175,0.5528 0.0816,0.2341 0.121,0.5077 0.1182,0.8206 l 0,6.6158 1.2861,0 0,-6.9712 c -0.0029,-0.5301 -0.0958,-0.9644 -0.2792,-1.3028 -0.1834,-0.3413 -0.44,-0.5922 -0.7728,-0.7558 -0.3327,-0.1635 -0.7276,-0.2426 -1.1814,-0.2426 -0.3215,0 -0.6177,0.0536 -0.8912,0.1553 -0.2736,0.1015 -0.5216,0.2452 -0.7444,0.4286 -0.2228,0.1832 -0.4232,0.4003 -0.5979,0.6514 l -0.017,0 0,-0.9983 z m 8.3586,-2.4534 -1.2861,0 0,2.4534 -1.2521,0 0,1.0828 1.2521,0 0,6.4636 c 0,0.3384 0.034,0.6091 0.0989,0.8121 0.0675,0.2004 0.1579,0.3498 0.2789,0.4456 0.1185,0.0986 0.2597,0.1607 0.4233,0.1919 0.1607,0.0281 0.341,0.0422 0.5357,0.0394 l 1.4043,0 0,-1.0828 -0.8629,0 c -0.172,0 -0.3016,-0.0227 -0.3863,-0.0678 -0.0845,-0.045 -0.1409,-0.1213 -0.1693,-0.2256 -0.028,-0.1043 -0.0394,-0.2424 -0.0365,-0.4173 l 0,-6.1591 1.489,0 0,-1.0828 -1.489,0 0,-2.4534 z m 9.8475,3.2995 c 0.3016,0.0029 0.5556,0.059 0.7557,0.1718 0.1973,0.11 0.3552,0.2597 0.4709,0.4484 0.1156,0.1891 0.1947,0.4006 0.2426,0.6347 0.0479,0.2339 0.0706,0.4765 0.0706,0.7246 l 1.218,0 c 0,-0.423 -0.0592,-0.8178 -0.1746,-1.1844 -0.1156,-0.3693 -0.2877,-0.6936 -0.5162,-0.9756 -0.2313,-0.2793 -0.5161,-0.4992 -0.8572,-0.66 -0.3441,-0.1578 -0.7389,-0.2398 -1.1931,-0.2426 -0.5159,0.0028 -0.9558,0.0961 -1.3198,0.2764 -0.3637,0.1834 -0.6624,0.4342 -0.8994,0.7531 -0.237,0.3187 -0.4229,0.6823 -0.5556,1.0971 -0.1327,0.4144 -0.2256,0.8543 -0.2792,1.3223 -0.0536,0.4683 -0.0788,0.9448 -0.076,1.4241 -0.0028,0.4712 0.0196,0.9307 0.0618,1.3791 0.0454,0.4484 0.1298,0.8685 0.2512,1.2606 0.1241,0.392 0.3016,0.739 0.5357,1.0377 0.2313,0.2991 0.5358,0.5329 0.9108,0.6993 0.3753,0.1693 0.8376,0.2569 1.3875,0.2597 0.5021,-0.0057 0.9278,-0.1015 1.2748,-0.2877 0.3495,-0.1891 0.6287,-0.4428 0.843,-0.7643 0.2118,-0.3186 0.3668,-0.6797 0.4626,-1.0828 0.0987,-0.4005 0.1466,-0.8178 0.1437,-1.2495 l -1.218,0 c -0.0142,0.2792 -0.0425,0.5528 -0.0819,0.8235 -0.0423,0.2707 -0.1128,0.5162 -0.22,0.739 -0.1043,0.2228 -0.2594,0.4005 -0.4652,0.5329 -0.206,0.1355 -0.4796,0.2032 -0.8234,0.2058 -0.3271,-0.0026 -0.5953,-0.0788 -0.8096,-0.2282 -0.2143,-0.1497 -0.3835,-0.347 -0.5074,-0.5978 -0.1242,-0.2512 -0.2143,-0.5304 -0.2735,-0.8405 -0.0593,-0.3101 -0.0961,-0.6262 -0.1129,-0.9533 -0.017,-0.3243 -0.0255,-0.6344 -0.0226,-0.9335 -0.0029,-0.3778 0.0113,-0.75 0.0365,-1.1165 0.0255,-0.364 0.0734,-0.7078 0.144,-1.0293 0.0734,-0.3217 0.1721,-0.6063 0.3045,-0.8518 0.1326,-0.2452 0.3047,-0.4399 0.5162,-0.578 0.2114,-0.1411 0.468,-0.2114 0.7755,-0.2143 z m 7.4619,-1.0831 c -0.7418,0.0028 -1.3538,0.1862 -1.8303,0.5556 -0.4765,0.3665 -0.832,0.8997 -1.0604,1.6018 -0.2285,0.7022 -0.341,1.5568 -0.341,2.5634 0.0025,0.9221 0.0788,1.692 0.231,2.3125 0.1525,0.6177 0.3725,1.1084 0.6542,1.4721 0.2849,0.3608 0.6234,0.6205 1.0211,0.7755 0.3948,0.1579 0.8373,0.2313 1.3254,0.2285 0.4961,0.0028 0.9417,-0.0706 1.3394,-0.2257 0.3977,-0.1578 0.7362,-0.4147 1.0179,-0.7783 0.2821,-0.3609 0.4992,-0.8487 0.6489,-1.4664 0.1494,-0.6148 0.2256,-1.3819 0.2256,-2.3012 0.0026,-1.0125 -0.1128,-1.8697 -0.3413,-2.5747 -0.2284,-0.705 -0.5839,-1.241 -1.0604,-1.6075 -0.4765,-0.3694 -1.0857,-0.5528 -1.8301,-0.5556 z m 0,1.0831 c 0.4482,-0.0057 0.815,0.1182 1.0942,0.3694 0.2789,0.248 0.4822,0.6514 0.6117,1.207 0.127,0.5556 0.1919,1.2858 0.1891,2.1968 0.0028,0.5358 -0.0255,1.0208 -0.0819,1.4579 -0.0564,0.4371 -0.1551,0.8121 -0.2931,1.1279 -0.1412,0.3132 -0.3328,0.5556 -0.5811,0.7276 -0.2481,0.1693 -0.561,0.254 -0.9389,0.2566 -0.4909,-0.0054 -0.877,-0.1551 -1.1534,-0.451 -0.2764,-0.2962 -0.4711,-0.7135 -0.5811,-1.2467 -0.1128,-0.5329 -0.1664,-1.156 -0.1607,-1.8723 -0.0028,-0.911 0.0592,-1.6412 0.1862,-2.1968 0.1267,-0.5556 0.33,-0.959 0.6092,-1.207 0.2792,-0.2512 0.6457,-0.3751 1.0998,-0.3694 z m 6.5481,-3.9934 -1.2861,0 0,12.1827 1.2861,0 0,-12.1827 z m 5.2622,2.9103 c -0.7418,0.0028 -1.3538,0.1862 -1.8303,0.5556 -0.4765,0.3665 -0.832,0.8997 -1.0605,1.6018 -0.2284,0.7022 -0.341,1.5568 -0.341,2.5634 0.0026,0.9221 0.0788,1.692 0.2311,2.3125 0.1525,0.6177 0.3724,1.1084 0.6542,1.4721 0.2849,0.3608 0.6233,0.6205 1.021,0.7755 0.3949,0.1579 0.8374,0.2313 1.3255,0.2285 0.4961,0.0028 0.9417,-0.0706 1.3394,-0.2257 0.3977,-0.1578 0.7361,-0.4147 1.0179,-0.7783 0.282,-0.3609 0.4992,-0.8487 0.6488,-1.4664 0.1494,-0.6148 0.2257,-1.3819 0.2257,-2.3012 0.0025,-1.0125 -0.1128,-1.8697 -0.3413,-2.5747 -0.2285,-0.705 -0.5839,-1.241 -1.0604,-1.6075 -0.4766,-0.3694 -1.0857,-0.5528 -1.8301,-0.5556 z m 0,1.0831 c 0.4482,-0.0057 0.815,0.1182 1.0942,0.3694 0.2789,0.248 0.4822,0.6514 0.6117,1.207 0.127,0.5556 0.1919,1.2858 0.1891,2.1968 0.0028,0.5358 -0.0255,1.0208 -0.082,1.4579 -0.0564,0.4371 -0.155,0.8121 -0.2931,1.1279 -0.1411,0.3132 -0.3327,0.5556 -0.5811,0.7276 -0.248,0.1693 -0.5609,0.254 -0.9388,0.2566 -0.491,-0.0054 -0.877,-0.1551 -1.1534,-0.451 -0.2764,-0.2962 -0.4711,-0.7135 -0.5811,-1.2467 -0.1128,-0.5329 -0.1664,-1.156 -0.1607,-1.8723 -0.0029,-0.911 0.0592,-1.6412 0.1862,-2.1968 0.1267,-0.5556 0.33,-0.959 0.6092,-1.207 0.2792,-0.2512 0.6457,-0.3751 1.0998,-0.3694 z m 6.548,-0.8461 -1.286,0 0,9.0354 1.286,0 0,-5.4822 c 0,-0.4878 0.0845,-0.9136 0.2452,-1.2776 0.1636,-0.3665 0.4006,-0.6485 0.7107,-0.8515 0.3075,-0.203 0.6854,-0.3044 1.1253,-0.3073 0.0845,0 0.1721,0.0029 0.2651,0.0111 0.0901,0.0085 0.1834,0.0227 0.2764,0.0397 l 0,-1.2521 c -0.0678,-0.0085 -0.127,-0.017 -0.1834,-0.0227 -0.0565,-0.0085 -0.1129,-0.0113 -0.1721,-0.0113 -0.375,0 -0.7022,0.0592 -0.9814,0.1749 -0.2789,0.1185 -0.5215,0.2934 -0.7273,0.5301 -0.2061,0.2341 -0.3864,0.5303 -0.5415,0.8855 l -0.017,0 0,-1.472 z m 4.1117,7.4112 0,1.6242 1.472,0 0,-1.6242 -1.472,0 z m 0,-7.259 0,1.6245 1.472,0 0,-1.6245 -1.472,0 z" />
  <path
     id="path10"
     style="fill:#e30079;fill-rule:evenodd"
     d="m 29.9823,44.5507 2.2264,9.5108 1.5851,0 1.4783,-8.104 0.0357,0 1.514,8.104 1.603,0 2.137,-9.5108 -1.2824,0 -1.6563,8.371 -0.0357,0 -1.6206,-8.371 -1.3892,0 -1.514,8.371 -0.0357,0 -1.7275,-8.371 -1.3181,0 z m 13.6072,-3.3128 -1.3536,0 0,12.8236 1.3536,0 0,-6.5721 c 0.0031,-0.3858 0.0833,-0.7302 0.2466,-1.0389 0.1602,-0.3059 0.3858,-0.5522 0.6766,-0.7333 0.2911,-0.1812 0.6293,-0.273 1.0182,-0.2761 0.3651,0.0031 0.6531,0.0714 0.8609,0.2109 0.2078,0.1394 0.3563,0.3325 0.4394,0.5816 0.0862,0.2467 0.1275,0.5344 0.1247,0.864 l 0,6.9639 1.3535,0 0,-7.338 c -0.0031,-0.5582 -0.1009,-1.0151 -0.2939,-1.3714 -0.1928,-0.3592 -0.4629,-0.6234 -0.8133,-0.7954 -0.3503,-0.1724 -0.7659,-0.2554 -1.2438,-0.2554 -0.3385,0 -0.65,0.0564 -0.938,0.1632 -0.288,0.1069 -0.5491,0.2583 -0.7838,0.4513 -0.2344,0.1928 -0.445,0.4215 -0.6293,0.6857 l -0.0178,0 0,-4.3636 z m 8.5668,3.3128 -1.3535,0 0,9.5108 1.3535,0 0,-9.5108 z m 0,-1.603 0,-1.7098 -1.3535,0 0,1.7098 1.3535,0 z m 4.0788,-0.9796 -1.3535,0 0,2.5826 -1.3181,0 0,1.1398 1.3181,0 0,6.8037 c 0,0.3561 0.0357,0.6412 0.104,0.855 0.0712,0.2106 0.1661,0.3679 0.2937,0.4688 0.1247,0.104 0.2732,0.1692 0.4453,0.2018 0.1692,0.0298 0.3591,0.0445 0.5641,0.0417 l 1.4783,0 0,-1.1398 -0.9085,0 c -0.1809,0 -0.3175,-0.0238 -0.4065,-0.0714 -0.089,-0.0474 -0.1486,-0.1276 -0.1783,-0.2373 -0.0295,-0.11 -0.0414,-0.2554 -0.0386,-0.4394 l 0,-6.4831 1.5676,0 0,-1.1398 -1.5676,0 0,-2.5826 z m 4.2211,6.5188 c -0.0028,-0.2554 0.0091,-0.5224 0.0298,-0.8016 0.0206,-0.279 0.0592,-0.5522 0.1216,-0.8164 0.0623,-0.267 0.1544,-0.5046 0.2761,-0.7212 0.1218,-0.2137 0.282,-0.3829 0.481,-0.5108 0.2018,-0.1275 0.4513,-0.1927 0.7481,-0.1958 0.3353,0.0031 0.6083,0.0949 0.8132,0.2732 0.2078,0.178 0.3623,0.4125 0.4691,0.7095 0.1069,0.2937 0.1781,0.6203 0.2166,0.9794 0.0357,0.3563 0.0536,0.7186 0.0505,1.0837 l -3.206,0 z m 3.2595,2.4043 c 0.0029,0.2761 -0.0178,0.5463 -0.0595,0.8133 -0.0414,0.2701 -0.1156,0.5136 -0.2285,0.7333 -0.1099,0.2225 -0.2673,0.3977 -0.4719,0.5312 -0.2018,0.1307 -0.466,0.199 -0.7898,0.2019 -0.3917,0 -0.7035,-0.0831 -0.9348,-0.2492 -0.2316,-0.1633 -0.404,-0.3977 -0.5137,-0.7067 -0.1128,-0.3115 -0.1839,-0.6826 -0.2168,-1.1191 -0.0326,-0.4331 -0.0473,-0.9261 -0.0445,-1.4692 l 4.6131,0 c 0.0028,-0.5077 -0.015,-1.0122 -0.0505,-1.5199 -0.0385,-0.5046 -0.1128,-0.9856 -0.2228,-1.4397 -0.1097,-0.4542 -0.2729,-0.8609 -0.4926,-1.2141 -0.2166,-0.3561 -0.5077,-0.6353 -0.8669,-0.8399 -0.3591,-0.205 -0.8073,-0.3087 -1.3416,-0.3118 -0.5017,0.0031 -0.9261,0.1009 -1.2824,0.288 -0.3532,0.1899 -0.644,0.4512 -0.8756,0.7806 -0.2288,0.3294 -0.4096,0.7064 -0.5375,1.131 -0.1304,0.4244 -0.2225,0.8757 -0.2729,1.3508 -0.0536,0.4779 -0.0803,0.9558 -0.0771,1.4366 0,0.953 0.0711,1.7543 0.2106,2.4015 0.1426,0.644 0.3472,1.1605 0.6174,1.5465 0.2701,0.383 0.5998,0.6591 0.9915,0.828 0.3889,0.1693 0.8342,0.2495 1.3329,0.2467 0.4986,-0.0032 0.9292,-0.095 1.2883,-0.2702 0.362,-0.1783 0.6619,-0.4246 0.8935,-0.7393 0.2344,-0.3115 0.4065,-0.6766 0.5193,-1.0865 0.11,-0.4124 0.1664,-0.8518 0.1664,-1.3238 l -1.3536,0 z" />
  <path
     id="path12"
     style="fill:#1b1918;fill-rule:evenodd"
     d="m 910.1846,271.1582 0,-7.6096 c 0,-9.4062 -1.7615,-17.4384 -5.2489,-24.1319 -3.4878,-6.6583 -8.6312,-11.7666 -15.4307,-15.3246 -6.764,-3.5232 -15.078,-5.3198 -24.9775,-5.355 -15.7473,-0.0351 -27.6196,4.2276 -35.5816,12.8234 -7.9616,8.5606 -11.9778,21.7718 -11.9778,39.5977 l 0,55.5917 c -0.0351,6.8346 0.6341,13.2814 2.0081,19.3762 1.4091,6.0948 3.8401,11.52 7.2924,16.2405 3.4526,4.7209 8.2789,8.4552 14.4088,11.168 6.1651,2.7125 13.9861,4.0864 23.4275,4.157 8.9833,-0.0706 16.4871,-1.4445 22.441,-4.1219 5.9891,-2.7127 10.7096,-6.4471 14.1622,-11.1676 3.4523,-4.756 5.9185,-10.2167 7.363,-16.3817 1.4442,-6.1651 2.1489,-12.7177 2.1135,-19.6932 l 0,-6.5525 -28.9585,0 0,8.2434 c 0,6.5174 -0.6341,11.6963 -1.9023,15.5716 -1.2682,3.9104 -3.2057,6.6934 -5.7776,8.3846 -2.5716,1.6908 -5.7775,2.501 -9.6528,2.4658 -4.0864,0.0352 -7.3981,-0.775 -9.9346,-2.4307 -2.5718,-1.6557 -4.4387,-4.439 -5.6367,-8.314 -1.1979,-3.8752 -1.7614,-9.0893 -1.7614,-15.6773 l 0,-60.2419 c 0,-6.3765 0.599,-11.4494 1.832,-15.2543 1.2328,-3.7696 3.1354,-6.482 5.707,-8.138 2.607,-1.6206 5.9185,-2.4307 10.0052,-2.3956 4.0864,-0.0351 7.363,0.775 9.8994,2.3956 2.5013,1.656 4.3685,4.3684 5.4958,8.138 1.1625,3.8049 1.7615,8.8778 1.726,15.2543 l 0,3.382 28.9585,0 z m 49.0391,38.259 21.1377,0 c 3.3114,0.0351 6.0944,0.6341 8.314,1.832 2.2546,1.1976 4.0161,2.8182 5.3549,4.8968 1.3034,2.0784 2.2547,4.4388 2.8182,7.081 0.599,2.6776 0.8807,5.4607 0.8456,8.3846 l 0,17.5442 c 0,3.2763 0.1763,6.5174 0.5284,9.7585 0.3875,3.2057 1.0921,6.1651 2.1138,8.8073 1.0216,2.6773 2.4661,4.7911 4.3333,6.3765 l 28.9584,0 0,-4.6502 c -2.2195,-0.0706 -3.8049,-1.2331 -4.8265,-3.5229 -0.9865,-2.2899 -1.5852,-5.3901 -1.8318,-9.2302 -0.2466,-3.8398 -0.3523,-8.1025 -0.3172,-12.8234 l 0,-19.4465 c 0.035,-2.783 -0.2817,-5.6015 -0.9158,-8.4197 -0.6341,-2.8537 -1.7263,-5.531 -3.2763,-8.0677 -1.5503,-2.5365 -3.6992,-4.756 -6.4117,-6.6583 -2.7128,-1.8672 -6.1654,-3.2412 -10.3224,-4.1219 4.5445,-0.6341 8.5255,-2.3604 11.9781,-5.1786 3.4523,-2.8536 6.1651,-6.8346 8.1026,-11.9781 1.9377,-5.1434 2.9242,-11.4494 2.9593,-18.9884 0,-5.531 -0.9158,-10.6744 -2.6773,-15.4656 -1.7614,-4.7559 -4.3333,-8.9484 -7.6447,-12.5416 -3.3469,-3.5934 -7.363,-6.4119 -12.0484,-8.4551 -4.7208,-2.0081 -10.0052,-3.0297 -15.8885,-3.0649 l -60.2422,0 0,152.6131 28.9585,0 0,-64.6809 z m 0,-65.3151 18.8124,0 c 4.3333,-0.0703 8.0677,0.5284 11.2031,1.7615 3.1705,1.233 5.6012,3.382 7.3275,6.4822 1.7263,3.0648 2.6071,7.363 2.6071,12.894 -0.0352,4.2979 -0.599,7.9265 -1.7263,10.8153 -1.1625,2.8888 -2.7125,5.1786 -4.6503,6.8698 -1.9375,1.7262 -4.1218,2.9239 -6.5525,3.6637 -2.431,0.7047 -4.9675,1.0922 -7.5745,1.0568 l -19.4465,0 0,-43.5433 z m 89.6233,-22.6171 0,152.6131 81.591,0 0,-23.2512 -52.6326,0 0,-47.3482 47.9823,0 0,-23.2515 -47.9823,0 0,-35.511 52.6326,0 0,-23.2512 -81.591,0 z m 93.4282,0 24.5194,152.6131 40.7956,0 15.8531,-106.3219 0.2114,0 15.6419,106.3219 40.7954,0 24.5197,-152.6131 -29.17,0 -17.3327,127.4593 -0.2115,0 -19.0238,-127.4593 -30.8608,0 -19.0239,127.4593 -0.2112,0 -17.333,-127.4593 -29.1696,0 z" />
</svg>
